/* XPM */
static char * black_xpm[] = {
"18 12 96 2",
"  	c None",
". 	c #FFFFFF",
"+ 	c #B0ABAB",
"@ 	c #584949",
"# 	c #2C1313",
"$ 	c #301111",
"% 	c #5F4545",
"& 	c #B6A8A8",
"* 	c #817C7C",
"= 	c #1F0E0E",
"- 	c #230C0C",
"; 	c #280A0A",
"> 	c #2C0808",
", 	c #300606",
"' 	c #320505",
") 	c #8E7676",
"! 	c #AEACAC",
"~ 	c #1B1010",
"{ 	c #200D0D",
"] 	c #250B0B",
"^ 	c #2A0909",
"/ 	c #2F0606",
"( 	c #340404",
"_ 	c #370202",
": 	c #370303",
"< 	c #B8A7A7",
"[ 	c #FDFDFD",
"} 	c #FCFCFC",
"| 	c #4F4C4C",
"1 	c #210D0D",
"2 	c #260B0B",
"3 	c #2B0808",
"4 	c #310606",
"5 	c #360303",
"6 	c #3B0101",
"7 	c #684141",
"8 	c #F8F8F8",
"9 	c #F7F7F7",
"0 	c #F6F6F6",
"a 	c #1D1919",
"b 	c #350404",
"c 	c #380202",
"d 	c #3B0C0C",
"e 	c #EEEEEE",
"f 	c #ECECEC",
"g 	c #EAEAEA",
"h 	c #E9E9E9",
"i 	c #1C1A1A",
"j 	c #1A1010",
"k 	c #240C0C",
"l 	c #290909",
"m 	c #2D0707",
"n 	c #310505",
"o 	c #330404",
"p 	c #370D0D",
"q 	c #E1E1E1",
"r 	c #DCDCDC",
"s 	c #D9D9D9",
"t 	c #D7D7D7",
"u 	c #444444",
"v 	c #181111",
"w 	c #1D0F0F",
"x 	c #220D0D",
"y 	c #2D0808",
"z 	c #2E0707",
"A 	c #614545",
"B 	c #D3D3D3",
"C 	c #CCCCCC",
"D 	c #C8C8C8",
"E 	c #C5C5C5",
"F 	c #888888",
"G 	c #161212",
"H 	c #1E0E0E",
"I 	c #B4A9A9",
"J 	c #CACACA",
"K 	c #C2C2C2",
"L 	c #BCBCBC",
"M 	c #B9B9B9",
"N 	c #BABABA",
"O 	c #616161",
"P 	c #171212",
"Q 	c #867979",
"R 	c #C0C0C0",
"S 	c #8B8B8B",
"T 	c #474343",
"U 	c #201818",
"V 	c #231616",
"W 	c #544949",
"X 	c #AFA9A9",
"Y 	c #FEFEFE",
"Z 	c #C7C7C7",
"` 	c #CBCBCB",
" .	c #D5D5D5",
"..	c #DFDFDF",
"+.	c #F3F3F3",
"@.	c #F9F9F9",
". . . . . . . . . . . . . . . . . . ",
". . . . . . + @ # $ % & . . . . . . ",
". . . . . * = - ; > , ' ) . . . . . ",
". . . . ! ~ { ] ^ / ( _ : < . . . . ",
"[ } } } | ~ 1 2 3 4 5 6 6 7 . . . . ",
"8 9 0 0 a ~ { 2 3 , b c c d . . . . ",
"e f g h i j = k l m n o o p . . . . ",
"q r s t u v w x 2 ^ y z z A . . . . ",
"B C D E F G j H x ] ; l l I . . . . ",
"J K L M N O P ~ H 1 - k Q . . . . . ",
"J K L M N R S T U V W X Y . . . . . ",
"B C D E Z `  ...g +.@.[ . . . . . . "};
