/* XPM */
static char * blue1_xpm[] = {
"18 12 115 2",
"  	c None",
". 	c #FFFFFF",
"+ 	c #ABB8BE",
"@ 	c #497286",
"# 	c #135879",
"$ 	c #11658D",
"% 	c #458FB2",
"& 	c #A8CDDF",
"* 	c #7C8A91",
"= 	c #0E3C51",
"- 	c #0C4D6C",
"; 	c #0A5E86",
"> 	c #086E9E",
", 	c #067BB2",
"' 	c #0583BE",
") 	c #76BADB",
"! 	c #ACB0B1",
"~ 	c #102E3D",
"{ 	c #0D415A",
"] 	c #0B5476",
"^ 	c #096693",
"/ 	c #0678AE",
"( 	c #0488C8",
"_ 	c #0295DA",
": 	c #0395DA",
"< 	c #A7D5EB",
"[ 	c #FDFDFD",
"} 	c #FCFCFC",
"| 	c #4C5458",
"1 	c #103040",
"2 	c #0D435D",
"3 	c #0B567A",
"4 	c #086998",
"5 	c #067DB5",
"6 	c #0390D3",
"7 	c #01A2F0",
"8 	c #01A2EF",
"9 	c #41ABDD",
"0 	c #F8F8F8",
"a 	c #F7F7F7",
"b 	c #F6F6F6",
"c 	c #192328",
"d 	c #102F3E",
"e 	c #0D425B",
"f 	c #0B5578",
"g 	c #086795",
"h 	c #067AB1",
"i 	c #048BCC",
"j 	c #0299E1",
"k 	c #0C8FCE",
"l 	c #EEEEEE",
"m 	c #ECECEC",
"n 	c #EAEAEA",
"o 	c #E9E9E9",
"p 	c #1A2022",
"q 	c #102B38",
"r 	c #0E3D54",
"s 	c #0C4F70",
"t 	c #09618A",
"u 	c #0771A3",
"v 	c #057FB8",
"w 	c #0487C6",
"x 	c #0D82BA",
"y 	c #E1E1E1",
"z 	c #DCDCDC",
"A 	c #D9D9D9",
"B 	c #D7D7D7",
"C 	c #444444",
"D 	c #11252E",
"E 	c #0F3648",
"F 	c #0D4662",
"G 	c #09648F",
"H 	c #086E9F",
"I 	c #0775A9",
"J 	c #4592B7",
"K 	c #D3D3D3",
"L 	c #CCCCCC",
"M 	c #C8C8C8",
"N 	c #C5C5C5",
"O 	c #888888",
"P 	c #121C20",
"Q 	c #102C39",
"R 	c #0E3B50",
"S 	c #0D4965",
"T 	c #0B5477",
"U 	c #0A5D85",
"V 	c #09628C",
"W 	c #A9C6D4",
"X 	c #CACACA",
"Y 	c #C2C2C2",
"Z 	c #BCBCBC",
"` 	c #B9B9B9",
" .	c #BABABA",
"..	c #616161",
"+.	c #122027",
"@.	c #102E3C",
"#.	c #0E3A4E",
"$.	c #0D445E",
"%.	c #0C4B69",
"&.	c #0C4F6F",
"*.	c #799EAF",
"=.	c #C0C0C0",
"-.	c #8B8B8B",
";.	c #434D51",
">.	c #18303C",
",.	c #163848",
"'.	c #496877",
").	c #A9B9C0",
"!.	c #FEFEFE",
"~.	c #C7C7C7",
"{.	c #CBCBCB",
"].	c #D5D5D5",
"^.	c #DFDFDF",
"/.	c #F3F3F3",
"(.	c #F9F9F9",
". . . . . . . . . . . . . . . . . . ",
". . . . . . + @ # $ % & . . . . . . ",
". . . . . * = - ; > , ' ) . . . . . ",
". . . . ! ~ { ] ^ / ( _ : < . . . . ",
"[ } } } | 1 2 3 4 5 6 7 8 9 . . . . ",
"0 a b b c d e f g h i j j k . . . . ",
"l m n o p q r s t u v w w x . . . . ",
"y z A B C D E F 3 G H I I J . . . . ",
"K L M N O P Q R S T U V V W . . . . ",
"X Y Z `  ...+.@.#.$.%.&.*.. . . . . ",
"X Y Z `  .=.-.;.>.,.'.).!.. . . . . ",
"K L M N ~.{.].^.n /.(.[ . . . . . . "};
