/* XPM */
static char * down_xpm[] = {
"51 26 318 2",
"  	c None",
". 	c #FF1119",
"+ 	c #FF1018",
"@ 	c #FF0F17",
"# 	c #FF0F16",
"$ 	c #FF0E14",
"% 	c #FF0D14",
"& 	c #FF131B",
"* 	c #FF131A",
"= 	c #FF1219",
"- 	c #FF1118",
"; 	c #FF1117",
"> 	c #FF1017",
", 	c #FF1016",
"' 	c #F60F15",
") 	c #FF171F",
"! 	c #FF161E",
"~ 	c #FF141C",
"{ 	c #FA1118",
"] 	c #F41117",
"^ 	c #F21117",
"/ 	c #FC1218",
"( 	c #FF1218",
"_ 	c #EA1016",
": 	c #CC0E13",
"< 	c #C50E13",
"[ 	c #FF1A22",
"} 	c #FF1920",
"| 	c #FF161D",
"1 	c #F8141A",
"2 	c #EF1319",
"3 	c #EC1319",
"4 	c #E91319",
"5 	c #E81218",
"6 	c #EB1319",
"7 	c #E61218",
"8 	c #D31116",
"9 	c #C00F14",
"0 	c #FF1C25",
"a 	c #FF1B23",
"b 	c #FF181F",
"c 	c #F0161C",
"d 	c #E6151B",
"e 	c #E3141A",
"f 	c #E2141A",
"g 	c #DE141A",
"h 	c #CE1218",
"i 	c #BC1116",
"j 	c #FF1F28",
"k 	c #FF1E26",
"l 	c #FF1B22",
"m 	c #EA181E",
"n 	c #DF171D",
"o 	c #DE161C",
"p 	c #DD161C",
"q 	c #D9161C",
"r 	c #C8141A",
"s 	c #B21217",
"t 	c #AA1116",
"u 	c #FF2028",
"v 	c #FF1D24",
"w 	c #E51A20",
"x 	c #DA191F",
"y 	c #D9181E",
"z 	c #D8181E",
"A 	c #D1171D",
"B 	c #AF1418",
"C 	c #870F13",
"D 	c #FF232B",
"E 	c #E21C23",
"F 	c #D61B21",
"G 	c #D41A20",
"H 	c #D31A20",
"I 	c #CF1A20",
"J 	c #B0161B",
"K 	c #760E12",
"L 	c #740E12",
"M 	c #FF272D",
"N 	c #F22228",
"O 	c #D51E23",
"P 	c #CF1D22",
"Q 	c #8A1316",
"R 	c #000000",
"S 	c #2E0607",
"T 	c #5C0C0F",
"U 	c #A1161A",
"V 	c #170303",
"W 	c #45090B",
"X 	c #731012",
"Y 	c #44090B",
"Z 	c #CE1D22",
"` 	c #CD1D22",
" .	c #B81A1F",
"..	c #841316",
"+.	c #721013",
"@.	c #FF2A30",
"#.	c #FF282F",
"$.	c #E22329",
"%.	c #CE2025",
"&.	c #CA1F24",
"*.	c #861418",
"=.	c #2D0608",
"-.	c #5A0D10",
";.	c #9D181C",
">.	c #701114",
",.	c #160304",
"'.	c #430A0C",
").	c #B31B20",
"!.	c #C91F24",
"~.	c #C01E23",
"{.	c #97171B",
"].	c #6D1113",
"^.	c #A4191D",
"/.	c #FA2A31",
"(.	c #EE282E",
"_.	c #D02329",
":.	c #C62227",
"<.	c #C52126",
"[.	c #831619",
"}.	c #410B0C",
"|.	c #AF1D21",
"1.	c #6D1215",
"2.	c #2C0708",
"3.	c #C42126",
"4.	c #BF2025",
"5.	c #991A1E",
"6.	c #5D1012",
"7.	c #89171B",
"8.	c #EC2C32",
"9.	c #DF292F",
"0.	c #C6242A",
"a.	c #C02328",
"b.	c #80171A",
"c.	c #400B0D",
"d.	c #550F11",
"e.	c #150304",
"f.	c #AA1F23",
"g.	c #6A1316",
"h.	c #951B1F",
"i.	c #2A0708",
"j.	c #BF2328",
"k.	c #BB2227",
"l.	c #530F11",
"m.	c #7A1619",
"n.	c #E42E33",
"o.	c #D62B2F",
"p.	c #BF262A",
"q.	c #BB2529",
"r.	c #7C181B",
"s.	c #3E0C0D",
"t.	c #A62024",
"u.	c #911C1F",
"v.	c #531012",
"w.	c #150404",
"x.	c #BA2529",
"y.	c #B52428",
"z.	c #8E1C1F",
"A.	c #4F1011",
"B.	c #731719",
"C.	c #D52E33",
"D.	c #CB2C31",
"E.	c #BA282C",
"F.	c #B6272B",
"G.	c #791A1C",
"H.	c #3C0D0E",
"I.	c #511113",
"J.	c #140404",
"K.	c #A22226",
"L.	c #651517",
"M.	c #8E1E21",
"N.	c #280809",
"O.	c #B4272B",
"P.	c #AA2528",
"Q.	c #7D1B1E",
"R.	c #450F10",
"S.	c #6A1719",
"T.	c #C02D31",
"U.	c #BE2C31",
"V.	c #B62B2F",
"W.	c #B1292D",
"X.	c #761B1E",
"Y.	c #3B0D0F",
"Z.	c #8A1F23",
"`.	c #140405",
" +	c #4F1214",
".+	c #621619",
"++	c #AE292D",
"@+	c #992427",
"#+	c #5E1618",
"$+	c #350C0D",
"%+	c #5F1618",
"&+	c #B92F33",
"*+	c #BC2F34",
"=+	c #B72E32",
"-+	c #AE2C30",
";+	c #AC2B2F",
">+	c #AB2B2F",
",+	c #721C1F",
"'+	c #26090A",
")+	c #4C1315",
"!+	c #862124",
"~+	c #5F171A",
"{+	c #130405",
"]+	c #390E0F",
"^+	c #992629",
"/+	c #A62A2E",
"(+	c #882225",
"_+	c #491214",
":+	c #320C0E",
"<+	c #65191C",
"[+	c #BA3437",
"}+	c #B43235",
"|+	c #A92F32",
"1+	c #A62E31",
"2+	c #6F1E20",
"3+	c #250A0A",
"4+	c #4A1415",
"5+	c #A72E31",
"6+	c #822326",
"7+	c #120505",
"8+	c #5C191B",
"9+	c #94282B",
"0+	c #370F10",
"a+	c #A42E31",
"b+	c #9A2B2E",
"c+	c #722022",
"d+	c #3C1012",
"e+	c #3D1112",
"f+	c #A53134",
"g+	c #A03033",
"h+	c #A13033",
"i+	c #A23033",
"j+	c #972D30",
"k+	c #7B2527",
"l+	c #4C1718",
"m+	c #2E0D0E",
"n+	c #451416",
"o+	c #872B2E",
"p+	c #8F2E31",
"q+	c #9A3134",
"r+	c #9C3235",
"s+	c #9D3235",
"t+	c #9B3235",
"u+	c #932F32",
"v+	c #782729",
"w+	c #4D181A",
"x+	c #2B0E0E",
"y+	c #2E0E0F",
"z+	c #7F2C2E",
"A+	c #7E2B2E",
"B+	c #8A2F32",
"C+	c #953336",
"D+	c #973437",
"E+	c #983437",
"F+	c #963436",
"G+	c #8E3134",
"H+	c #75282A",
"I+	c #4A191B",
"J+	c #2A0E0F",
"K+	c #4B1A1B",
"L+	c #7A2D2F",
"M+	c #843134",
"N+	c #8D3437",
"O+	c #8F3538",
"P+	c #923639",
"Q+	c #933639",
"R+	c #903538",
"S+	c #8E3537",
"T+	c #883235",
"U+	c #70292C",
"V+	c #481A1C",
"W+	c #290F10",
"X+	c #491B1C",
"Y+	c #762F31",
"Z+	c #722D2F",
"`+	c #752E31",
" @	c #7E3235",
".@	c #873638",
"+@	c #893739",
"@@	c #8A373A",
"#@	c #893639",
"$@	c #843437",
"%@	c #7A3033",
"&@	c #6F2C2E",
"*@	c #612628",
"=@	c #431A1C",
"-@	c #270F10",
";@	c #461C1D",
">@	c #692D2F",
",@	c #552426",
"'@	c #4C2022",
")@	c #582527",
"!@	c #662B2E",
"~@	c #6A2D2F",
"{@	c #682C2F",
"]@	c #5E282A",
"^@	c #491F21",
"/@	c #3A191A",
"(@	c #321516",
"_@	c #271011",
":@	c #271111",
"<@	c #441D1E",
"[@	c #492123",
"}@	c #472022",
"|@	c #3E1C1E",
"1@	c #391A1B",
"2@	c #381A1B",
"3@	c #37191A",
"4@	c #311617",
"5@	c #271213",
"6@	c #301617",
"7@	c #663335",
"8@	c #582B2D",
"9@	c #50282A",
"0@	c #4F2729",
"a@	c #4E2628",
"b@	c #4A2526",
"c@	c #442123",
"                                                                                                      ",
"                    . + @ @ @ @ @ @ @ @ @ @ @ @ @ @ @ @ @ @ @ @ @ @ @ @ @ @ # # $ %                   ",
"                & & * = - - - - - - - - - - - - - - - - - - - - - - - - - - ; > , , > '               ",
"            ) ! ~ * = { ] ] ^ ^ ^ ^ ^ ^ ^ ^ ^ ^ ^ ^ ^ ^ ^ ^ ^ ^ ^ ^ ^ ^ ^ ^ ^ ^ ] / ( _ : <           ",
"          [ } | 1 2 3 4 4 5 5 5 5 5 5 5 5 5 5 5 5 5 5 5 5 5 5 5 5 5 5 5 5 5 5 5 4 6 6 7 8 9 9         ",
"        0 a b c d e e e e e e e e e e e e e e e e e e e e e e e e e e e e e f e e e e f g h i i       ",
"      j k l m n o o o o o o o o o o o o o o o o o o o o o o o o o o o o o o o o o p p p p q r s t     ",
"      u v w x y y y y y y y y y y y y y y y y y y y y y y y y y y y y y y y y y y y z z z z A B C     ",
"    D u E F G G G G G G G G G G G G G G G G G G G G G G G G G G G G G G G G G G G G G H H H I J K L   ",
"    M N O P P P Q R R R R S T P P P U S R R V T P P V R P P R R Q P W R X Q R V P P Q R Y Z `  ...+.  ",
"  @.#.$.%.&.&.&.*.R =.*.*.=.R -.&.;.R R -.>.,.R -.&.'.R ).).R R >.&.=.,.&.*.R R >.&.*.R '.!.!.~.{.].^.",
"  /.(._.:.<.<.<.[.R }.<.<.|.R R <.}.R 1.<.<.|.2.R <.}.R [.[.R R }.<.R }.<.[.R R ,.<.[.R }.<.3.4.5.6.7.",
"  8.9.0.a.a.a.a.b.R c.a.a.a.d.R b.e.R f.a.a.a.g.R h.b.R g.g.i.i.i.a.R g.a.b.R i.R g.b.R c.a.j.k.h.l.m.",
"  n.o.p.q.q.q.q.r.R s.q.q.q.r.R r.R R q.q.q.q.r.R r.t.R s.s.s.s.R r.R u.q.r.R s.v.w.r.R s.q.x.y.z.A.B.",
"  C.D.E.F.F.F.F.G.R H.F.F.F.I.R G.J.R K.F.F.F.L.R M.F.J.N.N.G.G.R I.J.F.F.G.R H.K.J.N.R H.F.O.P.Q.R.S.",
"  T.U.V.W.W.W.W.X.R Y.W.W.Z.R `.W. +R Y.W.W.X.`.`.W.W.Y.R R Z.Z.`.R Y.W.W.X.R Y.W..+R R Y.W.++@+#+$+%+",
"  &+*+=+-+;+>+;+,+R '+,+,+'+R )+;+!+R R )+~+{+R )+;+;+!+R R ;+;+]+R ~+;+;+,+R ]+;+^+R R ]+>+/+(+_+:+<+",
"    [+}+|+1+1+1+2+R R R R 3+4+5+5+5+6+3+R R 7+4+5+5+5+5+3+3+5+5+8+R 9+5+5+2+R 0+5+5+4+R 0+a+b+c+d+e+  ",
"    f+g+g+h+h+h+h+i+i+i+i+i+i+i+i+i+i+i+i+i+i+i+i+i+i+i+i+i+i+i+i+i+i+i+i+i+i+i+i+i+i+h+g+j+k+l+m+n+  ",
"      o+p+q+r+r+r+r+s+s+s+s+s+s+s+s+s+s+s+s+s+s+s+s+s+s+s+s+s+s+s+s+s+s+s+s+s+s+s+s+r+t+u+v+w+x+y+    ",
"      z+A+B+C+D+D+D+D+E+E+E+E+E+E+E+E+E+E+E+E+E+E+E+E+E+E+E+E+E+E+E+E+E+E+E+E+E+E+D+F+G+H+I+J+J+K+    ",
"        L+L+M+N+O+P+P+P+P+P+Q+Q+Q+Q+Q+Q+Q+Q+Q+Q+Q+Q+Q+Q+Q+Q+Q+Q+Q+Q+Q+Q+Q+Q+P+P+R+S+T+U+V+W+W+X+      ",
"          Y+Z+Z+`+ @.@+@+@@@+@+@+@+@+@+@+@+@+@+@+@+@+@+@+@+@+@+@+@+@+@+@+@+@#@$@%@&@*@=@-@-@;@        ",
"            >@,@'@)@!@~@~@~@~@~@~@~@~@~@~@~@~@~@~@~@~@~@~@~@~@~@~@~@~@~@~@~@{@]@^@/@(@_@:@<@          ",
"                [@[@}@|@1@2@2@2@2@2@2@2@2@2@2@2@2@2@2@2@2@2@2@2@2@2@2@2@2@2@3@4@5@5@6@2@              ",
"                    7@8@9@0@0@0@0@0@0@0@0@0@0@0@0@0@0@0@0@0@0@0@0@0@0@0@0@0@a@b@c@b@                  "};
