/* XPM */
static char * freeze[] = {
"68 26 303 2",
"  	c None",
". 	c #7DABF9",
"+ 	c #78A4EE",
"@ 	c #749FE7",
"# 	c #739EE6",
"$ 	c #729DE4",
"% 	c #6E97DC",
"& 	c #668CCC",
"* 	c #668BCB",
"= 	c #77A2F2",
"- 	c #75A0EE",
"; 	c #6E96DF",
"> 	c #6A90D6",
", 	c #698FD5",
"' 	c #698ED4",
") 	c #668BCF",
"! 	c #6285C7",
"~ 	c #6488CB",
"{ 	c #5D7EBC",
"] 	c #7CA5FE",
"^ 	c #769EF2",
"/ 	c #6D92E0",
"( 	c #688BD6",
"_ 	c #6485CD",
": 	c #5E7EC1",
"< 	c #5C7BBC",
"[ 	c #5B7ABB",
"} 	c #5F7FC2",
"| 	c #6181C6",
"1 	c #5876B5",
"2 	c #4D679E",
"3 	c #4A6399",
"4 	c #789EF9",
"5 	c #7297EE",
"6 	c #6687D5",
"7 	c #5C7AC0",
"8 	c #5975B9",
"9 	c #5874B7",
"0 	c #5773B5",
"a 	c #5672B4",
"b 	c #5774B6",
"c 	c #5571B2",
"d 	c #4F68A4",
"e 	c #475F95",
"f 	c #7599F7",
"g 	c #7092EC",
"h 	c #6483D3",
"i 	c #5974BC",
"j 	c #5570B4",
"k 	c #546EB2",
"l 	c #546EB1",
"m 	c #526CAE",
"n 	c #4C64A1",
"o 	c #465B93",
"p 	c #7192F3",
"q 	c #6C8BE8",
"r 	c #607DCF",
"s 	c #566FB9",
"t 	c #526AB0",
"u 	c #5169AF",
"v 	c #5169AE",
"w 	c #5067AB",
"x 	c #495F9E",
"y 	c #41548C",
"z 	c #3E5186",
"A 	c #6983E5",
"B 	c #5E76CD",
"C 	c #5469B7",
"D 	c #5064AE",
"E 	c #4F63AD",
"F 	c #4F63AC",
"G 	c #4C5FA6",
"H 	c #40508B",
"I 	c #313E6C",
"J 	c #647BDE",
"K 	c #5D73D0",
"L 	c #5165B6",
"M 	c #4D5FAC",
"N 	c #4C5EAA",
"O 	c #4C5EA9",
"P 	c #4B5CA6",
"Q 	c #3F4E8D",
"R 	c #2A345E",
"S 	c #2A345D",
"T 	c #6176DA",
"U 	c #5769C3",
"V 	c #4C5DAC",
"W 	c #4A5AA7",
"X 	c #313C6F",
"Y 	c #000000",
"Z 	c #181E37",
"` 	c #101425",
" .	c #4A5AA6",
"..	c #4A59A5",
"+.	c #425095",
"@.	c #2F3A6B",
"#.	c #29315C",
"$.	c #5F70DB",
"%.	c #5C6CD4",
"&.	c #505EB9",
"*.	c #4956A8",
"=.	c #4754A5",
"-.	c #2F386E",
";.	c #0F1224",
">.	c #374180",
",.	c #272E5B",
"'.	c #080912",
").	c #171C37",
"!.	c #3F4A92",
"~.	c #4754A4",
"{.	c #44509D",
"].	c #353F7C",
"^.	c #262D59",
"/.	c #3A4486",
"(.	c #5865CE",
"_.	c #5460C4",
":.	c #4954AB",
"<.	c #4650A3",
"[.	c #454FA2",
"}.	c #2E346C",
"|.	c #171A36",
"1.	c #353D7E",
"2.	c #0F1124",
"3.	c #454FA1",
"4.	c #434D9D",
"5.	c #363E7E",
"6.	c #20254C",
"7.	c #303770",
"8.	c #525BC5",
"9.	c #4D56BA",
"0.	c #444CA5",
"a.	c #424AA0",
"b.	c #2C316A",
"c.	c #0E1023",
"d.	c #33397C",
"e.	c #161835",
"f.	c #424A9F",
"g.	c #41489C",
"h.	c #343A7D",
"i.	c #1C2045",
"j.	c #2A2F65",
"k.	c #4E56BF",
"l.	c #4A51B4",
"m.	c #4248A1",
"n.	c #40469D",
"o.	c #2A2E68",
"p.	c #383E8B",
"q.	c #151734",
"r.	c #232657",
"s.	c #1C1F46",
"t.	c #40469C",
"u.	c #3E4498",
"v.	c #313578",
"w.	c #1B1D42",
"x.	c #282B61",
"y.	c #484BB5",
"z.	c #4548AD",
"A.	c #3F429F",
"B.	c #3D409B",
"C.	c #282A67",
"D.	c #141533",
"E.	c #1B1C45",
"F.	c #212356",
"G.	c #0D0E22",
"H.	c #3D4099",
"I.	c #393C91",
"J.	c #2A2C6B",
"K.	c #17183A",
"L.	c #24255A",
"M.	c #4041A5",
"N.	c #4041A3",
"O.	c #3D3E9C",
"P.	c #3B3C98",
"Q.	c #272865",
"R.	c #131432",
"S.	c #2E2E76",
"T.	c #343587",
"U.	c #3A3B96",
"V.	c #333483",
"W.	c #1F2051",
"X.	c #11122D",
"Y.	c #202052",
"Z.	c #3D3AA1",
"`.	c #3D3BA4",
" +	c #3C3A9F",
".+	c #393798",
"++	c #383696",
"@+	c #383695",
"#+	c #252464",
"$+	c #121232",
"%+	c #0C0C21",
"&+	c #313085",
"*+	c #191843",
"=+	c #060611",
"-+	c #2B2A75",
";+	c #373591",
">+	c #2C2B76",
",+	c #181740",
"'+	c #10102C",
")+	c #212058",
"!+	c #3D37A4",
"~+	c #3B359F",
"{+	c #373295",
"]+	c #363192",
"^+	c #363193",
"/+	c #242062",
"(+	c #121031",
"_+	c #2A2672",
":+	c #060510",
"<+	c #353191",
"[+	c #322E88",
"}+	c #252264",
"|+	c #131235",
"1+	c #141236",
"2+	c #342D93",
"3+	c #332C8F",
"4+	c #332C90",
"5+	c #332C8E",
"6+	c #302987",
"7+	c #27226E",
"8+	c #181544",
"9+	c #0E0C29",
"0+	c #16133D",
"a+	c #2A227A",
"b+	c #2D2482",
"c+	c #30278B",
"d+	c #31278D",
"e+	c #31278E",
"f+	c #31278C",
"g+	c #2E2585",
"h+	c #261E6D",
"i+	c #181345",
"j+	c #0D0B27",
"k+	c #0E0B2A",
"l+	c #271D74",
"m+	c #261C73",
"n+	c #2A1F7E",
"o+	c #2D2288",
"p+	c #2E228A",
"q+	c #2E228B",
"r+	c #2E2289",
"s+	c #2B2082",
"t+	c #231A6B",
"u+	c #161144",
"v+	c #0D0926",
"w+	c #171145",
"x+	c #251972",
"y+	c #281B7B",
"z+	c #2B1D84",
"A+	c #2B1E85",
"B+	c #2C1E88",
"C+	c #2C1E89",
"D+	c #2B1E86",
"E+	c #2B1D85",
"F+	c #291C7F",
"G+	c #221768",
"H+	c #150F43",
"I+	c #0C0826",
"J+	c #160F44",
"K+	c #22146F",
"L+	c #21136B",
"M+	c #22146E",
"N+	c #251677",
"O+	c #271780",
"P+	c #281882",
"Q+	c #281883",
"R+	c #281781",
"S+	c #26177D",
"T+	c #231573",
"U+	c #201369",
"V+	c #1C115C",
"W+	c #130B3F",
"X+	c #0B0625",
"Y+	c #140C42",
"Z+	c #1E0F65",
"`+	c #180C52",
" @	c #160B49",
".@	c #190C55",
"+@	c #1D0E62",
"@@	c #1E0F66",
"#@	c #1B0D5B",
"$@	c #150A46",
"%@	c #110838",
"&@	c #0E0730",
"*@	c #0B0525",
"=@	c #0B0526",
"-@	c #130941",
";@	c #140847",
">@	c #130845",
",@	c #11073D",
"'@	c #100638",
")@	c #0F0637",
"!@	c #0F0636",
"~@	c #0D0530",
"{@	c #0B0426",
"]@	c #0D052F",
"^@	c #1C0866",
"/@	c #180658",
"(@	c #160650",
"_@	c #15064F",
":@	c #15064E",
"<@	c #14054A",
"[@	c #120544",
"                                                                                                                                        ",
"                    . + @ # # # # # # # # # # # # # # # # # # # # # # # # # # # # # # # # # # # # # # # # # # $ % & *                   ",
"                = = - ; > , , , , , , , , , , , , , , , , , , , , , , , , , , , , , , , , , , , , , , , , , , ' ) ! ~ ) {               ",
"            ] ^ / ( _ : < < [ [ [ [ [ [ [ [ [ [ [ [ [ [ [ [ [ [ [ [ [ [ [ [ [ [ [ [ [ [ [ [ [ [ [ [ [ [ [ [ [ [ [ < } | 1 2 3           ",
"          4 5 6 7 8 9 0 0 a a a a a a a a a a a a a a a a a a a a a a a a a a a a a a a a a a a a a a a a a a a a 0 b b c d e e         ",
"        f g h i j k k k k k k k k k k k k k k k k k k k k k k k k k k k k k k k k k k k k k k k k k k k k k k l k k k k l m n o o       ",
"      p q r s t u u u u u u u u u u u u u u u u u u u u u u u u u u u u u u u u u u u u u u u u u u u u u u u u u u v v v v w x y z     ",
"      A B C D E E E E E E E E E E E E E E E E E E E E E E E E E E E E E E E E E E E E E E E E E E E E E E E E E E E E F F F F G H I     ",
"    J K L M N N N N N N N N N N N N N N N N N N N N N N N N N N N N N N N N N N N N N N N N N N N N N N N N N N N N N N O O O P Q R S   ",
"    T U V W W W W W W W X Y Y Y Y Y Z W Y Y Y Y Y ` X W X Y Y Y Y Y Y W X Y Y Y Y Y Y W Z Y Y Y Y Y Z W Y Y Y Y Y Y X W W  . ...+.@.#.  ",
"  $.%.&.*.=.=.=.=.=.=.=.-.Y ;.-.-.-.>.=.Y Y -.-.,.Y '.=.-.Y ;.-.-.-.-.=.-.Y ;.-.-.-.-.=.>.-.-.-.).Y ).=.Y Y -.-.-.-.!.=.=.=.~.~.{.].^./.",
"  (._.:.<.[.[.[.[.[.[.[.}.Y |.[.[.[.[.[.Y Y [.[.[.Y Y [.}.Y |.[.[.[.[.[.}.Y |.[.[.[.[.[.[.[.[.1.Y 2.[.[.Y Y [.[.[.[.[.[.[.[.[.3.4.5.6.7.",
"  8.9.0.a.a.a.a.a.a.a.a.b.Y c.b.b.b.a.a.Y Y a.a.b.Y c.a.b.Y c.b.b.b.d.a.b.Y c.b.b.b.d.a.a.a.a.e.Y d.a.a.Y Y b.b.b.b.a.a.a.a.a.f.g.h.i.j.",
"  k.l.m.n.n.n.n.n.n.n.n.o.Y Y Y Y Y n.n.Y Y Y Y Y Y p.n.o.Y Y Y Y Y q.n.o.Y Y Y Y Y q.n.n.n.r.Y s.n.n.n.Y Y Y Y Y Y n.n.n.n.n.t.u.v.w.x.",
"  y.z.A.B.B.B.B.B.B.B.B.C.Y D.B.B.B.B.B.Y Y C.C.D.Y E.B.C.Y D.B.B.B.B.B.C.Y D.B.B.B.B.B.B.F.Y G.B.B.B.B.Y Y B.B.B.B.B.B.B.B.B.H.I.J.K.L.",
"  M.N.O.P.P.P.P.P.P.P.P.Q.Y R.P.P.P.P.P.Y Y P.P.Q.Y R.P.Q.Y R.P.P.P.P.P.Q.Y R.P.P.P.P.P.S.Y Y T.P.P.P.P.Y Y P.P.P.P.P.P.P.P.P.U.V.W.X.Y.",
"  Z.`. +.+++@+++++++++++#+Y $+++++++++++Y Y ++++#+Y $+++#+Y %+#+#+#+#+&+#+Y %+#+#+#+#+&+*+Y =+#+#+#+-+++Y Y #+#+#+#+-+++++++@+;+>+,+'+)+",
"    !+~+{+]+]+]+^+^+^+^+/+Y (+^+^+^+^+^+Y Y ^+^+_+Y :+^+/+Y Y Y Y Y Y /+/+Y Y Y Y Y Y /+(+Y Y Y Y Y (+^+Y Y Y Y Y Y (+^+^+]+<+[+}+|+1+  ",
"    2+3+3+3+3+3+3+4+4+4+4+4+4+4+4+4+4+4+4+4+4+4+4+4+4+4+4+4+4+4+4+4+4+4+4+4+4+4+4+4+4+4+4+4+4+4+4+4+4+4+4+4+4+4+4+4+4+4+3+5+6+7+8+9+0+  ",
"      a+b+c+d+d+d+d+e+e+e+e+e+e+e+e+e+e+e+e+e+e+e+e+e+e+e+e+e+e+e+e+e+e+e+e+e+e+e+e+e+e+e+e+e+e+e+e+e+e+e+e+e+e+e+e+e+d+f+g+h+i+j+k+    ",
"      l+m+n+o+p+p+p+p+q+q+q+q+q+q+q+q+q+q+q+q+q+q+q+q+q+q+q+q+q+q+q+q+q+q+q+q+q+q+q+q+q+q+q+q+q+q+q+q+q+q+q+q+q+q+q+p+r+s+t+u+v+v+w+    ",
"        x+x+y+z+A+B+B+B+B+B+C+C+C+C+C+C+C+C+C+C+C+C+C+C+C+C+C+C+C+C+C+C+C+C+C+C+C+C+C+C+C+C+C+C+C+C+C+C+C+C+C+B+B+D+E+F+G+H+I+I+J+      ",
"          K+L+L+M+N+O+P+P+Q+P+P+P+P+P+P+P+P+P+P+P+P+P+P+P+P+P+P+P+P+P+P+P+P+P+P+P+P+P+P+P+P+P+P+P+P+P+P+P+P+P+R+S+T+U+V+W+X+X+Y+        ",
"            Z+`+ @.@+@@@@@@@@@@@@@@@@@@@@@@@@@@@@@@@@@@@@@@@@@@@@@@@@@@@@@@@@@@@@@@@@@@@@@@@@@@@@@@@@@@@@@@@@@Z+#@$@%@&@*@=@-@          ",
"                ;@;@>@,@'@)@)@)@)@)@)@)@)@)@)@)@)@)@)@)@)@)@)@)@)@)@)@)@)@)@)@)@)@)@)@)@)@)@)@)@)@)@)@)@)@)@)@!@~@{@{@]@)@              ",
"                    ^@/@(@_@_@_@_@_@_@_@_@_@_@_@_@_@_@_@_@_@_@_@_@_@_@_@_@_@_@_@_@_@_@_@_@_@_@_@_@_@_@_@_@_@_@:@<@[@<@                  "};
