/* XPM */
static char * frozen_start[] = {
"114 26 325 2",
"  	c None",
". 	c #0536FF",
"+ 	c #0533FF",
"@ 	c #0432FF",
"# 	c #0431FF",
"$ 	c #042FFF",
"% 	c #042CFF",
"& 	c #0938FF",
"* 	c #0837FF",
"= 	c #0833FF",
"- 	c #0831FF",
"; 	c #0731FF",
"> 	c #072FFF",
", 	c #072EFF",
"' 	c #072BF6",
") 	c #0C3EFF",
"! 	c #0B3BFF",
"~ 	c #0A36FF",
"{ 	c #0A34FF",
"] 	c #0A32FF",
"^ 	c #092FFA",
"/ 	c #092EF4",
"( 	c #092DF2",
"_ 	c #092FFC",
": 	c #0930FF",
"< 	c #082CEA",
"[ 	c #0726CC",
"} 	c #0725C5",
"| 	c #1040FF",
"1 	c #0F3EFF",
"2 	c #0E37FF",
"3 	c #0C32F8",
"4 	c #0C30EF",
"5 	c #0C2FEC",
"6 	c #0C2FE9",
"7 	c #0B2EE8",
"8 	c #0C2FEB",
"9 	c #0B2EE6",
"0 	c #0A2AD3",
"a 	c #0926C0",
"b 	c #1343FF",
"c 	c #1240FF",
"d 	c #1039FF",
"e 	c #0E33F0",
"f 	c #0E31E6",
"g 	c #0D30E3",
"h 	c #0D30E2",
"i 	c #0D2FDE",
"j 	c #0C2CCE",
"k 	c #0B28BC",
"l 	c #1746FF",
"m 	c #1643FF",
"n 	c #143CFF",
"o 	c #1135EA",
"p 	c #1133DF",
"q 	c #1032DE",
"r 	c #1032DD",
"s 	c #1031D9",
"t 	c #0F2DC8",
"u 	c #0D28B2",
"v 	c #0D27AA",
"w 	c #1947FF",
"x 	c #163FFF",
"y 	c #1438E5",
"z 	c #1336DA",
"A 	c #1235D9",
"B 	c #1235D8",
"C 	c #1233D1",
"D 	c #0F2BAF",
"E 	c #0B2187",
"F 	c #1C48FF",
"G 	c #1A44FF",
"H 	c #173BE2",
"I 	c #1638D6",
"J 	c #1537D4",
"K 	c #1537D3",
"L 	c #1536CF",
"M 	c #122EB0",
"N 	c #0C1F76",
"O 	c #0C1E74",
"P 	c #1F4BFF",
"Q 	c #1B43F2",
"R 	c #183BD5",
"S 	c #1739CF",
"T 	c #0F268A",
"U 	c #000000",
"V 	c #071345",
"W 	c #050C2E",
"X 	c #1432B8",
"Y 	c #0A195C",
"Z 	c #112CA1",
"` 	c #0C1F73",
" .	c #020617",
"..	c #1739CE",
"+.	c #1739CD",
"@.	c #1533B8",
"#.	c #0F2484",
"$.	c #0D1F72",
"%.	c #234FFF",
"&.	c #224CFF",
"*.	c #1E42E2",
"=.	c #1B3CCE",
"-.	c #1A3BCA",
";.	c #112786",
">.	c #050D2D",
",.	c #142E9D",
"'.	c #0E2070",
").	c #020616",
"!.	c #081343",
"~.	c #1734B3",
"{.	c #0B1A5A",
"].	c #1A3BC9",
"^.	c #1938C0",
"/.	c #142C97",
"(.	c #0E206D",
"_.	c #1530A4",
":.	c #244EFA",
"<.	c #224AEE",
"[.	c #1E41D0",
"}.	c #1D3EC6",
"|.	c #1C3DC5",
"1.	c #122883",
"2.	c #091441",
"3.	c #060D2C",
"4.	c #0C1B58",
"5.	c #152F99",
"6.	c #1C3DC4",
"7.	c #1B3BBF",
"8.	c #163099",
"9.	c #0D1D5D",
"0.	c #142A89",
"a.	c #274EEC",
"b.	c #254ADF",
"c.	c #2041C6",
"d.	c #1F3FC0",
"e.	c #142A80",
"f.	c #060E2A",
"g.	c #0D1C55",
"h.	c #11236A",
"i.	c #1B38AA",
"j.	c #0A1540",
"k.	c #183195",
"l.	c #030715",
"m.	c #1F3FBF",
"n.	c #1F3EBB",
"o.	c #0D1B53",
"p.	c #14287A",
"q.	c #2951E4",
"r.	c #264CD6",
"s.	c #2244BF",
"t.	c #2142BB",
"u.	c #162C7C",
"v.	c #1D3AA6",
"w.	c #0B163E",
"x.	c #122468",
"y.	c #0E1D53",
"z.	c #193391",
"A.	c #070E29",
"B.	c #2142BA",
"C.	c #2040B5",
"D.	c #19328E",
"E.	c #0E1C4F",
"F.	c #142973",
"G.	c #2B50D5",
"H.	c #294CCB",
"I.	c #2546BA",
"J.	c #2444B6",
"K.	c #182D79",
"L.	c #0C163C",
"M.	c #101E51",
"N.	c #142565",
"O.	c #203CA2",
"P.	c #080F28",
"Q.	c #040714",
"R.	c #1C358E",
"S.	c #2444B4",
"T.	c #2240AA",
"U.	c #192F7D",
"V.	c #0D1A45",
"W.	c #15286A",
"X.	c #2A4CC0",
"Y.	c #294BBE",
"Z.	c #2848B6",
"`.	c #2646B1",
" +	c #192E76",
".+	c #0C173B",
"++	c #1D368A",
"@+	c #213E9D",
"#+	c #080F27",
"$+	c #152662",
"%+	c #101F4F",
"&+	c #2645AE",
"*+	c #213D99",
"=+	c #14255E",
"-+	c #0B1535",
";+	c #14265F",
">+	c #2C4EB9",
",+	c #2D4FBC",
"'+	c #2C4DB7",
")+	c #2A49AE",
"!+	c #2948AC",
"~+	c #2948AB",
"{+	c #1B3072",
"]+	c #0D1839",
"^+	c #040813",
"/+	c #091026",
"(+	c #12204C",
"_+	c #1F3886",
":+	c #16285F",
"<+	c #244099",
"[+	c #2846A6",
"}+	c #213988",
"|+	c #111F49",
"1+	c #0C1532",
"2+	c #182A65",
"3+	c #3053BA",
"4+	c #2F50B4",
"5+	c #2C4BA9",
"6+	c #2B4AA6",
"7+	c #1C316F",
"8+	c #0E1837",
"9+	c #2B4AA7",
"0+	c #213982",
"a+	c #040812",
"b+	c #264194",
"c+	c #13214A",
"d+	c #091025",
"e+	c #17295C",
"f+	c #2B49A4",
"g+	c #28459A",
"h+	c #1E3372",
"i+	c #0F1B3C",
"j+	c #101B3D",
"k+	c #2F4EA5",
"l+	c #2E4CA0",
"m+	c #2E4CA1",
"n+	c #2E4CA2",
"o+	c #2E4BA0",
"p+	c #2B4797",
"q+	c #233A7B",
"r+	c #16244C",
"s+	c #0D152E",
"t+	c #142045",
"u+	c #2A4487",
"v+	c #2C488F",
"w+	c #2F4E9A",
"x+	c #304F9C",
"y+	c #304F9D",
"z+	c #304E9B",
"A+	c #2D4A93",
"B+	c #253D78",
"C+	c #17274D",
"D+	c #0D162B",
"E+	c #0E172E",
"F+	c #2B447F",
"G+	c #2A437E",
"H+	c #2F4A8A",
"I+	c #325095",
"J+	c #335197",
"K+	c #335198",
"L+	c #335096",
"M+	c #304C8E",
"N+	c #273E75",
"O+	c #19284A",
"P+	c #0E162A",
"Q+	c #19284B",
"R+	c #2C457A",
"S+	c #304B84",
"T+	c #33508D",
"U+	c #34518F",
"V+	c #355292",
"W+	c #355392",
"X+	c #355393",
"Y+	c #345190",
"Z+	c #34518E",
"`+	c #314D88",
" @	c #293F70",
".@	c #1A2848",
"+@	c #0E1729",
"@@	c #1A2949",
"#@	c #2F4776",
"$@	c #2D4472",
"%@	c #2E4675",
"&@	c #324C7E",
"*@	c #365187",
"=@	c #375289",
"-@	c #37538A",
";@	c #365289",
">@	c #344F84",
",@	c #30497A",
"'@	c #2C436F",
")@	c #263A61",
"!@	c #1A2843",
"~@	c #0F1727",
"{@	c #1C2A46",
"]@	c #2D4369",
"^@	c #243655",
"/@	c #20304C",
"(@	c #253858",
"_@	c #2B4166",
":@	c #2D436A",
"<@	c #2C4268",
"[@	c #283C5E",
"}@	c #1F2E49",
"|@	c #19253A",
"1@	c #152032",
"2@	c #101827",
"3@	c #111927",
"4@	c #1D2B44",
"5@	c #223149",
"6@	c #213047",
"7@	c #1D2A3E",
"8@	c #1A2639",
"9@	c #1A2638",
"0@	c #192537",
"a@	c #172131",
"b@	c #121A27",
"c@	c #162030",
"d@	c #334A66",
"e@	c #2C3F58",
"f@	c #283A50",
"g@	c #28394F",
"h@	c #27384E",
"i@	c #25364A",
"j@	c #223144",
"                                                                                                                                                                                                                                    ",
"                    . + @ @ @ @ @ @ @ @ @ @ @ @ @ @ @ @ @ @ @ @ @ @ @ @ @ @ @ @ @ @ @ @ @ @ @ @ @ @ @ @ @ @ @ @ @ @ @ @ @ @ @ @ @ @ @ @ @ @ @ @ @ @ @ @ @ @ @ @ @ @ @ @ @ @ @ @ @ @ @ @ @ @ @ @ @ @ @ @ @ # $ % %                   ",
"                & & * = - - - - - - - - - - - - - - - - - - - - - - - - - - - - - - - - - - - - - - - - - - - - - - - - - - - - - - - - - - - - - - - - - - - - - - - - - - - - - - - - - - - - - - - - - ; > , , > '               ",
"            ) ! ~ { ] ^ / / ( ( ( ( ( ( ( ( ( ( ( ( ( ( ( ( ( ( ( ( ( ( ( ( ( ( ( ( ( ( ( ( ( ( ( ( ( ( ( ( ( ( ( ( ( ( ( ( ( ( ( ( ( ( ( ( ( ( ( ( ( ( ( ( ( ( ( ( ( ( ( ( ( ( ( ( ( ( ( ( ( ( ( ( ( ( ( ( ( / _ : < [ }           ",
"          | 1 2 3 4 5 6 6 7 7 7 7 7 7 7 7 7 7 7 7 7 7 7 7 7 7 7 7 7 7 7 7 7 7 7 7 7 7 7 7 7 7 7 7 7 7 7 7 7 7 7 7 7 7 7 7 7 7 7 7 7 7 7 7 7 7 7 7 7 7 7 7 7 7 7 7 7 7 7 7 7 7 7 7 7 7 7 7 7 7 7 7 7 7 7 7 7 7 6 8 8 9 0 a a         ",
"        b c d e f g g g g g g g g g g g g g g g g g g g g g g g g g g g g g g g g g g g g g g g g g g g g g g g g g g g g g g g g g g g g g g g g g g g g g g g g g g g g g g g g g g g g g g g g g g g g h g g g g h i j k k       ",
"      l m n o p q q q q q q q q q q q q q q q q q q q q q q q q q q q q q q q q q q q q q q q q q q q q q q q q q q q q q q q q q q q q q q q q q q q q q q q q q q q q q q q q q q q q q q q q q q q q q q q q r r r r s t u v     ",
"      w x y z A A A A A A A A A A A A A A A A A A A A A A A A A A A A A A A A A A A A A A A A A A A A A A A A A A A A A A A A A A A A A A A A A A A A A A A A A A A A A A A A A A A A A A A A A A A A A A A A A A B B B B C D E     ",
"    F G H I J J J J J J J J J J J J J J J J J J J J J J J J J J J J J J J J J J J J J J J J J J J J J J J J J J J J J J J J J J J J J J J J J J J J J J J J J J J J J J J J J J J J J J J J J J J J J J J J J J J J K K K L M N O   ",
"    P Q R S S S T U U U U U V S U U U U U W T S S X Y U U U V X S V U U U U U V S U U U U U U T S U U Z S S U U S S S S S S S S S T W U U Y S S U U U U U U U S S S W U ` S S S V U U U U  .Y S V U U U U U U T S S S ....+.@.#.$.  ",
"  %.&.*.=.-.-.-.;.U >.;.;.;.,.-.U U ;.;.'.U ).-.-.).U >.;.>.U ).-.,.;.;.;.!.U !.-.U U ;.;.;.;.~.-.U U >.-.-.U U -.-.-.-.-.-.-.-.~.U ).;.{.U >.-.;.;.{.U {.;.;.-.-.~.U U >.-.-.-.!.U {.;.;.).U ,.,.;.;.U >.;.;.~.-.-.-.-.].].^./.(._.",
"  :.<.[.}.|.|.|.1.U 2.|.|.|.|.|.U U |.|.|.U U |.1.U 3.|.|.|.4.U 1.|.|.|.5.U 3.|.|.U U |.|.|.|.|.|.U U U 5.|.U U |.|.|.|.|.|.|.|.1.U 1.|.|.3.U |.|.|.1.U 1.|.|.|.|.1.U U U |.|.|.2.U 1.|.|.2.U 1.|.|.|.U 2.|.|.|.|.|.|.|.|.6.7.8.9.0.",
"  a.b.c.d.d.d.d.e.U f.e.e.e.d.d.U U d.d.e.U f.d.g.U h.d.d.d.i.U g.d.d.d.j.U k.d.d.U U e.e.e.e.d.d.U U f.f.d.U U d.d.d.d.d.d.d.d.k.U l.h.k.d.d.d.d.d.e.U e.d.d.d.d.U U e.U e.d.d.j.U e.d.i.l.U i.d.d.d.U j.d.d.d.d.d.d.d.d.m.n.k.o.p.",
"  q.r.s.t.t.t.t.u.U U U U U t.t.U U U U U U v.t.w.U u.t.t.t.t.U w.t.t.x.U y.t.t.t.U U U U U U t.t.U U z.U z.U U t.t.t.t.t.t.t.t.t.y.A.U U l.y.t.t.t.u.U u.t.t.t.u.U w.t.U A.t.t.w.U U U U U x.t.t.t.t.U w.t.t.t.t.t.t.t.t.B.C.D.E.F.",
"  G.H.I.J.J.J.J.K.U L.J.J.J.J.J.U U K.K.L.U M.J.M.U N.J.J.J.O.U M.J.N.U P.J.J.J.J.U U J.J.J.J.J.J.U U J.L.P.U U J.N.L.L.L.L.L.J.J.J.J.J.K.Q.U R.J.J.K.U K.J.J.J.L.U M.K.P.U R.J.L.U M.K.N.U Q.J.J.J.J.U L.J.J.J.J.J.J.J.J.S.T.U.V.W.",
"  X.Y.Z.`.`.`.`. +U .+`.`.`.`.`.U U `.`. +U .+`.++U Q.@+`.@+#+U ++++U U @+`.`.`.`.U U `.`.`.`.`.`.U U `.@+U U U `.$+.+.+.+.+.+`.%+U $+`.`..+U  +`.`. +U  +`.`.`.Q.U U U U U %+`..+U  +`.`.U U `.`.`.`.U .+`.`.`.`.`.`.`.`.&+*+=+-+;+",
"  >+,+'+)+!+~+!+{+U ]+!+!+!+!+!+U U !+!+{+U ]+!+!+^+U /+{+/+U ^+!+(+U ^+{+{+{+_+!+U U {+{+{+{+_+!+U U !+!+/+U U !+!+!+!+!+!+!+!+_+U ^+{+:+^+U <+!+!+{+U {+!+!+<+U ^+{+{+:+U /+!+]+U {+!+!+U U !+!+!+!+U ]+!+!+!+!+!+!+!+~+[+}+|+1+2+",
"    3+4+5+6+6+6+7+U 8+9+9+9+9+9+U U 9+9+0+U a+9+9+b+c+U U U 8+b+9+8+U U U U U 8+9+U U U U U U 8+9+U U 9+9+0+U U 9+9+9+9+9+9+9+9+9+7+d+U U 8+0+9+9+9+7+U 7+9+9+c+U e+9+9+9+a+U 0+8+U 7+9+9+a+U 0+9+9+9+U 8+9+9+9+9+9+9+6+f+g+h+i+j+  ",
"    k+l+l+m+m+m+m+n+n+n+n+n+n+n+n+n+n+n+n+n+n+n+n+n+n+n+n+n+n+n+n+n+n+n+n+n+n+n+n+n+n+n+n+n+n+n+n+n+n+n+n+n+n+n+n+n+n+n+n+n+n+n+n+n+n+n+n+n+n+n+n+n+n+n+n+n+n+n+n+n+n+n+n+n+n+n+n+n+n+n+n+n+n+n+n+n+n+n+n+n+n+n+n+n+m+o+p+q+r+s+t+  ",
"      u+v+w+x+x+x+x+y+y+y+y+y+y+y+y+y+y+y+y+y+y+y+y+y+y+y+y+y+y+y+y+y+y+y+y+y+y+y+y+y+y+y+y+y+y+y+y+y+y+y+y+y+y+y+y+y+y+y+y+y+y+y+y+y+y+y+y+y+y+y+y+y+y+y+y+y+y+y+y+y+y+y+y+y+y+y+y+y+y+y+y+y+y+y+y+y+y+y+y+y+y+y+x+z+A+B+C+D+E+    ",
"      F+G+H+I+J+J+J+J+K+K+K+K+K+K+K+K+K+K+K+K+K+K+K+K+K+K+K+K+K+K+K+K+K+K+K+K+K+K+K+K+K+K+K+K+K+K+K+K+K+K+K+K+K+K+K+K+K+K+K+K+K+K+K+K+K+K+K+K+K+K+K+K+K+K+K+K+K+K+K+K+K+K+K+K+K+K+K+K+K+K+K+K+K+K+K+K+K+K+K+K+K+J+L+M+N+O+P+P+Q+    ",
"        R+R+S+T+U+V+W+W+W+W+X+X+X+X+X+X+X+X+X+X+X+X+X+X+X+X+X+X+X+X+X+X+X+X+X+X+X+X+X+X+X+X+X+X+X+X+X+X+X+X+X+X+X+X+X+X+X+X+X+X+X+X+X+X+X+X+X+X+X+X+X+X+X+X+X+X+X+X+X+X+X+X+X+X+X+X+X+X+X+X+X+X+X+X+X+X+X+W+V+Y+Z+`+ @.@+@+@@@      ",
"          #@$@$@%@&@*@=@=@-@=@=@=@=@=@=@=@=@=@=@=@=@=@=@=@=@=@=@=@=@=@=@=@=@=@=@=@=@=@=@=@=@=@=@=@=@=@=@=@=@=@=@=@=@=@=@=@=@=@=@=@=@=@=@=@=@=@=@=@=@=@=@=@=@=@=@=@=@=@=@=@=@=@=@=@=@=@=@=@=@=@=@=@=@=@=@=@;@>@,@'@)@!@~@~@{@        ",
"            ]@^@/@(@_@:@:@:@:@:@:@:@:@:@:@:@:@:@:@:@:@:@:@:@:@:@:@:@:@:@:@:@:@:@:@:@:@:@:@:@:@:@:@:@:@:@:@:@:@:@:@:@:@:@:@:@:@:@:@:@:@:@:@:@:@:@:@:@:@:@:@:@:@:@:@:@:@:@:@:@:@:@:@:@:@:@:@:@:@:@:@:@:@:@:@<@[@}@|@1@2@3@4@          ",
"                5@5@6@7@8@9@9@9@9@9@9@9@9@9@9@9@9@9@9@9@9@9@9@9@9@9@9@9@9@9@9@9@9@9@9@9@9@9@9@9@9@9@9@9@9@9@9@9@9@9@9@9@9@9@9@9@9@9@9@9@9@9@9@9@9@9@9@9@9@9@9@9@9@9@9@9@9@9@9@9@9@9@9@9@9@9@9@9@9@9@9@9@9@0@a@b@b@c@9@              ",
"                    d@e@f@g@g@g@g@g@g@g@g@g@g@g@g@g@g@g@g@g@g@g@g@g@g@g@g@g@g@g@g@g@g@g@g@g@g@g@g@g@g@g@g@g@g@g@g@g@g@g@g@g@g@g@g@g@g@g@g@g@g@g@g@g@g@g@g@g@g@g@g@g@g@g@g@g@g@g@g@g@g@g@g@g@g@g@g@g@g@g@g@h@i@j@i@                  "};
