/* XPM */
static char * frozen_stop[] = {
"111 26 322 2",
"  	c None",
". 	c #FFC91D",
"+ 	c #FFC11B",
"@ 	c #FFBB1A",
"# 	c #FFBA1A",
"$ 	c #FFB81A",
"% 	c #FFB219",
"& 	c #FFA517",
"* 	c #FFA417",
"= 	c #FFBF21",
"- 	c #FFBC21",
"; 	c #FFB01F",
"> 	c #FFA91D",
", 	c #FFA81D",
"' 	c #FFA71D",
") 	c #FFA31C",
"! 	c #FE9D1B",
"~ 	c #FFA01C",
"{ 	c #F1951A",
"] 	c #FFC22A",
"^ 	c #FFBA28",
"/ 	c #FFAC25",
"( 	c #FFA424",
"_ 	c #FF9D22",
": 	c #F39420",
"< 	c #ED901F",
"[ 	c #EB8F1F",
"} 	c #F49520",
"| 	c #F99821",
"1 	c #E48B1E",
"2 	c #C6791A",
"3 	c #C07519",
"4 	c #FFBA30",
"5 	c #FFB22E",
"6 	c #FF9F29",
"7 	c #ED8F25",
"8 	c #E48A23",
"9 	c #E28923",
"0 	c #DF8723",
"a 	c #DE8622",
"b 	c #E18823",
"c 	c #DC8522",
"d 	c #CA7A1F",
"e 	c #B86F1C",
"f 	c #FFB235",
"g 	c #FFAA33",
"h 	c #FF982E",
"i 	c #E38729",
"j 	c #DA8227",
"k 	c #D78026",
"l 	c #D68026",
"m 	c #D27D26",
"n 	c #C37423",
"o 	c #B26A20",
"p 	c #FFA93C",
"q 	c #FFA23A",
"r 	c #F59133",
"s 	c #DB812E",
"t 	c #D07B2C",
"u 	c #CF7A2B",
"v 	c #CE7A2B",
"w 	c #CB782A",
"x 	c #BA6E27",
"y 	c #A66223",
"z 	c #9F5E21",
"A 	c #FF9A3F",
"B 	c #ED8A38",
"C 	c #D37B32",
"D 	c #C97530",
"E 	c #C8742F",
"F 	c #C7742F",
"G 	c #C0702E",
"H 	c #A15E26",
"I 	c #7C481D",
"J 	c #FB9045",
"K 	c #EB8740",
"L 	c #CD7638",
"M 	c #C27035",
"N 	c #C06E34",
"O 	c #BF6E34",
"P 	c #BC6C33",
"Q 	c #9F5B2B",
"R 	c #6B3D1D",
"S 	c #693C1D",
"T 	c #F1884A",
"U 	c #D77A42",
"V 	c #BD6B3A",
"W 	c #B86838",
"X 	c #7A4525",
"Y 	c #000000",
"Z 	c #3D2212",
"` 	c #29170C",
" .	c #A35C31",
"..	c #522E19",
"+.	c #8F512B",
"@.	c #66391F",
"#.	c #140B06",
"$.	c #B76838",
"%.	c #B66738",
"&.	c #A45D32",
"*.	c #754224",
"=.	c #65391F",
"-.	c #EA8250",
";.	c #E47E4E",
">.	c #C66E43",
",.	c #B4643D",
"'.	c #B1623C",
").	c #764128",
"!.	c #27150D",
"~.	c #8A4C2E",
"{.	c #623621",
"].	c #3B2014",
"^.	c #9D5735",
"/.	c #4F2B1A",
"(.	c #B0623C",
"_.	c #A85D39",
":.	c #854A2D",
"<.	c #5F3520",
"[.	c #905031",
"}.	c #D67553",
"|.	c #CC6F4F",
"1.	c #B36145",
"2.	c #AA5D42",
"3.	c #A95C41",
"4.	c #703D2B",
"5.	c #381E15",
"6.	c #25140E",
"7.	c #4B291D",
"8.	c #834732",
"9.	c #965139",
"0.	c #A85C41",
"a.	c #A4593F",
"b.	c #834833",
"c.	c #502B1F",
"d.	c #75402D",
"e.	c #C76A55",
"f.	c #BC6451",
"g.	c #A75947",
"h.	c #A25645",
"i.	c #6C392E",
"j.	c #24130F",
"k.	c #48261E",
"l.	c #5A2F26",
"m.	c #904C3D",
"n.	c #361C17",
"o.	c #7E4335",
"p.	c #120907",
"q.	c #A15645",
"r.	c #9E5443",
"s.	c #7E4336",
"t.	c #46251E",
"u.	c #67372C",
"v.	c #BC625B",
"w.	c #B15C55",
"x.	c #9E524C",
"y.	c #9A504A",
"z.	c #663531",
"A.	c #894741",
"B.	c #331A18",
"C.	c #552C29",
"D.	c #442321",
"E.	c #783E39",
"F.	c #221110",
"G.	c #110908",
"H.	c #99504A",
"I.	c #954E48",
"J.	c #753D38",
"K.	c #41221F",
"L.	c #5F312E",
"M.	c #AC575C",
"N.	c #A45358",
"O.	c #974C50",
"P.	c #934A4E",
"Q.	c #623134",
"R.	c #31181A",
"S.	c #412122",
"T.	c #51292B",
"U.	c #824145",
"V.	c #201011",
"W.	c #100808",
"X.	c #72393C",
"Y.	c #924A4D",
"Z.	c #894549",
"`.	c #653336",
" +	c #371C1D",
".+	c #562B2E",
"++	c #974A59",
"@+	c #954958",
"#+	c #8F4655",
"$+	c #8B4452",
"%+	c #5C2D36",
"&+	c #2E161B",
"*+	c #6C353F",
"=+	c #0F0709",
"-+	c #7B3C48",
";+	c #1F0F12",
">+	c #4D252D",
",+	c #3E1E24",
"'+	c #894351",
")+	c #783B47",
"!+	c #4A242C",
"~+	c #291418",
"{+	c #4B252C",
"]+	c #8E435E",
"^+	c #90445F",
"/+	c #8C425D",
"(+	c #863F58",
"_+	c #843E57",
":+	c #58293A",
"<+	c #2C141D",
"[+	c #1D0D13",
"}+	c #3B1B26",
"|+	c #673043",
"1+	c #492230",
"2+	c #75374D",
"3+	c #803C54",
"4+	c #683145",
"5+	c #381A25",
"6+	c #271219",
"7+	c #4E2533",
"8+	c #8A3F66",
"9+	c #863D62",
"0+	c #7E395C",
"a+	c #7C385B",
"b+	c #52253C",
"c+	c #29121E",
"d+	c #602B47",
"e+	c #0E060A",
"f+	c #6E3151",
"g+	c #371928",
"h+	c #1B0C14",
"i+	c #451F32",
"j+	c #7A375A",
"k+	c #733454",
"l+	c #55263E",
"m+	c #2D1421",
"n+	c #763362",
"o+	c #73325F",
"p+	c #743260",
"q+	c #72325F",
"r+	c #6D2F5A",
"s+	c #582649",
"t+	c #37182D",
"u+	c #210E1B",
"v+	c #311529",
"w+	c #5E2656",
"x+	c #64285B",
"y+	c #6B2B62",
"z+	c #6D2C64",
"A+	c #6B2C63",
"B+	c #66295E",
"C+	c #54224D",
"D+	c #351531",
"E+	c #1E0C1C",
"F+	c #200D1D",
"G+	c #542058",
"H+	c #542057",
"I+	c #5C235F",
"J+	c #632667",
"K+	c #652669",
"L+	c #642668",
"M+	c #5F2462",
"N+	c #4E1D51",
"O+	c #311333",
"P+	c #1C0A1D",
"Q+	c #321334",
"R+	c #4E1B5A",
"S+	c #551D62",
"T+	c #5B1F69",
"U+	c #5C206A",
"V+	c #5D206C",
"W+	c #5E206D",
"X+	c #5C206B",
"Y+	c #5B1F6A",
"Z+	c #571E65",
"`+	c #481953",
" @	c #2E1035",
".@	c #1A091E",
"+@	c #2E1036",
"@@	c #47165E",
"#@	c #45155B",
"$@	c #47165D",
"%@	c #4D1765",
"&@	c #52196C",
"*@	c #531A6E",
"=@	c #541A6E",
"-@	c #53196D",
";@	c #501969",
">@	c #4A1761",
",@	c #441559",
"'@	c #3B124D",
")@	c #290C35",
"!@	c #18071F",
"~@	c #2A0D38",
"{@	c #3D105B",
"]@	c #310D49",
"^@	c #2C0B41",
"/@	c #330D4C",
"(@	c #3B0F58",
"_@	c #3C0F5A",
":@	c #370E51",
"<@	c #2A0B3F",
"[@	c #220832",
"}@	c #1D072B",
"|@	c #160521",
"1@	c #170622",
"2@	c #270A3A",
"3@	c #270843",
"4@	c #260842",
"5@	c #210739",
"6@	c #1F0635",
"7@	c #1E0634",
"8@	c #1D0633",
"9@	c #1A052D",
"0@	c #150424",
"a@	c #330666",
"b@	c #2C0558",
"c@	c #280550",
"d@	c #28054F",
"e@	c #27044E",
"f@	c #25044A",
"g@	c #220444",
"                                                                                                                                                                                                                              ",
"                    . + @ # # # # # # # # # # # # # # # # # # # # # # # # # # # # # # # # # # # # # # # # # # # # # # # # # # # # # # # # # # # # # # # # # # # # # # # # # # # # # # # # # # # # # $ % & *                   ",
"                = = - ; > , , , , , , , , , , , , , , , , , , , , , , , , , , , , , , , , , , , , , , , , , , , , , , , , , , , , , , , , , , , , , , , , , , , , , , , , , , , , , , , , , , , , , ' ) ! ~ ) {               ",
"            ] ^ / ( _ : < < [ [ [ [ [ [ [ [ [ [ [ [ [ [ [ [ [ [ [ [ [ [ [ [ [ [ [ [ [ [ [ [ [ [ [ [ [ [ [ [ [ [ [ [ [ [ [ [ [ [ [ [ [ [ [ [ [ [ [ [ [ [ [ [ [ [ [ [ [ [ [ [ [ [ [ [ [ [ [ [ [ [ [ [ [ [ < } | 1 2 3           ",
"          4 5 6 7 8 9 0 0 a a a a a a a a a a a a a a a a a a a a a a a a a a a a a a a a a a a a a a a a a a a a a a a a a a a a a a a a a a a a a a a a a a a a a a a a a a a a a a a a a a a a a a a 0 b b c d e e         ",
"        f g h i j k k k k k k k k k k k k k k k k k k k k k k k k k k k k k k k k k k k k k k k k k k k k k k k k k k k k k k k k k k k k k k k k k k k k k k k k k k k k k k k k k k k k k k k k k l k k k k l m n o o       ",
"      p q r s t u u u u u u u u u u u u u u u u u u u u u u u u u u u u u u u u u u u u u u u u u u u u u u u u u u u u u u u u u u u u u u u u u u u u u u u u u u u u u u u u u u u u u u u u u u u u u v v v v w x y z     ",
"      A B C D E E E E E E E E E E E E E E E E E E E E E E E E E E E E E E E E E E E E E E E E E E E E E E E E E E E E E E E E E E E E E E E E E E E E E E E E E E E E E E E E E E E E E E E E E E E E E E E F F F F G H I     ",
"    J K L M N N N N N N N N N N N N N N N N N N N N N N N N N N N N N N N N N N N N N N N N N N N N N N N N N N N N N N N N N N N N N N N N N N N N N N N N N N N N N N N N N N N N N N N N N N N N N N N N N O O O P Q R S   ",
"    T U V W W W W W X Y Y Y Y Y Z W Y Y Y Y Y ` X W W  ...Y Y Y Z  .W Z Y Y Y Y Y Z W Y Y Y Y Y Y X W Y Y +.W W Y Y W W W W W W W W W X ` Y Y ..W W Y Y Y Y Y Y Y W W @.#.Y Y ` X W W Y Y Y Y #.@.W W W W W W W $.$.%.&.*.=.  ",
"  -.;.>.,.'.'.'.'.'.).Y !.).).).~.'.Y Y ).).{.Y #.'.'.#.Y !.).!.Y #.'.~.).).).].Y ].'.Y Y ).).).).^.'.Y Y !.'.'.Y Y '.'.'.'.'.'.'.'.^.Y #.)./.Y !.'.).)./.Y /.).).'./.Y #.{./.Y Y ~.'.Y Y ).).#.Y {.'.'.'.'.'.'.'.(.(._.:.<.[.",
"  }.|.1.2.3.3.3.3.3.4.Y 5.3.3.3.3.3.Y Y 3.3.3.Y Y 3.4.Y 6.3.3.3.7.Y 4.3.3.3.8.Y 6.3.3.Y Y 3.3.3.3.3.3.Y Y Y 8.3.Y Y 3.3.3.3.3.3.3.3.4.Y 4.3.3.6.Y 3.3.3.4.Y 4.3.3.3.Y Y 9.3.3.8.Y 5.3.Y Y 3.3.4.Y 5.3.3.3.3.3.3.3.3.0.a.b.c.d.",
"  e.f.g.h.h.h.h.h.h.i.Y j.i.i.i.h.h.Y Y h.h.i.Y j.h.k.Y l.h.h.h.m.Y k.h.h.h.n.Y o.h.h.Y Y i.i.i.i.h.h.Y Y j.j.h.Y Y h.h.h.h.h.h.h.h.o.Y p.l.o.h.h.h.h.h.i.Y i.h.h.o.Y j.h.h.h.h.j.p.h.Y Y h.h.l.Y n.h.h.h.h.h.h.h.h.q.r.s.t.u.",
"  v.w.x.y.y.y.y.y.y.z.Y Y Y Y Y y.y.Y Y Y Y Y Y A.y.B.Y z.y.y.y.y.Y B.y.y.C.Y D.y.y.y.Y Y Y Y Y Y y.y.Y Y E.Y E.Y Y y.y.y.y.y.y.y.y.y.D.F.Y Y G.D.y.y.y.z.Y z.y.y.z.Y B.y.y.y.y.B.Y y.Y Y B.B.Y Y E.y.y.y.y.y.y.y.y.H.I.J.K.L.",
"  M.N.O.P.P.P.P.P.P.Q.Y R.P.P.P.P.P.Y Y Q.Q.R.Y S.P.S.Y T.P.P.P.U.Y S.P.T.Y V.P.P.P.P.Y Y P.P.P.P.P.P.Y Y P.R.V.Y Y P.T.R.R.R.R.R.P.P.P.P.P.Q.W.Y X.P.P.Q.Y Q.P.P.X.Y V.P.P.P.P.V.W.P.Y Y R.R.T.P.P.P.P.P.P.P.P.P.P.Y.Z.`. +.+",
"  ++@+#+$+$+$+$+$+$+%+Y &+$+$+$+$+$+Y Y $+$+%+Y &+$+*+Y =+-+$+-+;+Y *+*+Y Y -+$+$+$+$+Y Y $+$+$+$+$+$+Y Y $+-+Y Y Y $+>+&+&+&+&+&+$+,+Y >+$+$+&+Y %+$+$+%+Y %+$+$+$+=+Y %+$+$+,+Y ,+$+Y Y $+$+$+$+$+$+$+$+$+$+$+$+$+'+)+!+~+{+",
"  ]+^+/+(+_+_+_+_+_+:+Y <+_+_+_+_+_+Y Y _+_+:+Y <+_+_+=+Y [+:+[+Y =+_+}+Y =+:+:+:+|+_+Y Y :+:+:+:+|+_+Y Y _+_+[+Y Y _+_+_+_+_+_+_+_+|+Y =+:+1+=+Y 2+_+_+:+Y :+_+_+_+}+Y =+1+}+Y Y |+_+Y Y _+_+_+_+_+_+_+_+_+_+_+_+_+3+4+5+6+7+",
"    8+9+0+a+a+a+a+a+b+Y c+a+a+a+a+a+Y Y a+a+d+Y e+a+a+f+g+Y Y Y c+f+a+c+Y Y Y Y Y c+a+Y Y Y Y Y Y c+a+Y Y a+a+d+Y Y a+a+a+a+a+a+a+a+a+b+h+Y Y c+d+a+a+a+b+Y b+a+a+a+a+i+e+Y Y h+b+a+a+Y Y a+a+a+a+a+a+a+a+a+a+a+a+j+k+l+m+m+  ",
"    n+o+o+p+p+p+p+p+p+p+p+p+p+p+p+p+p+p+p+p+p+p+p+p+p+p+p+p+p+p+p+p+p+p+p+p+p+p+p+p+p+p+p+p+p+p+p+p+p+p+p+p+p+p+p+p+p+p+p+p+p+p+p+p+p+p+p+p+p+p+p+p+p+p+p+p+p+p+p+p+p+p+p+p+p+p+p+p+p+p+p+p+p+p+p+p+p+p+p+p+p+p+q+r+s+t+u+v+  ",
"      w+x+y+z+z+z+z+z+z+z+z+z+z+z+z+z+z+z+z+z+z+z+z+z+z+z+z+z+z+z+z+z+z+z+z+z+z+z+z+z+z+z+z+z+z+z+z+z+z+z+z+z+z+z+z+z+z+z+z+z+z+z+z+z+z+z+z+z+z+z+z+z+z+z+z+z+z+z+z+z+z+z+z+z+z+z+z+z+z+z+z+z+z+z+z+z+z+z+z+z+A+B+C+D+E+F+    ",
"      G+H+I+J+K+K+K+K+K+K+K+K+K+K+K+K+K+K+K+K+K+K+K+K+K+K+K+K+K+K+K+K+K+K+K+K+K+K+K+K+K+K+K+K+K+K+K+K+K+K+K+K+K+K+K+K+K+K+K+K+K+K+K+K+K+K+K+K+K+K+K+K+K+K+K+K+K+K+K+K+K+K+K+K+K+K+K+K+K+K+K+K+K+K+K+K+K+K+K+L+M+N+O+P+P+Q+    ",
"        R+R+S+T+U+V+W+W+W+W+W+W+W+W+W+W+W+W+W+W+W+W+W+W+W+W+W+W+W+W+W+W+W+W+W+W+W+W+W+W+W+W+W+W+W+W+W+W+W+W+W+W+W+W+W+W+W+W+W+W+W+W+W+W+W+W+W+W+W+W+W+W+W+W+W+W+W+W+W+W+W+W+W+W+W+W+W+W+W+W+W+W+W+W+W+V+X+Y+Z+`+ @.@.@+@      ",
"          @@#@#@$@%@&@*@*@=@*@*@*@*@*@*@*@*@*@*@*@*@*@*@*@*@*@*@*@*@*@*@*@*@*@*@*@*@*@*@*@*@*@*@*@*@*@*@*@*@*@*@*@*@*@*@*@*@*@*@*@*@*@*@*@*@*@*@*@*@*@*@*@*@*@*@*@*@*@*@*@*@*@*@*@*@*@*@*@*@*@*@*@*@-@;@>@,@'@)@!@!@~@        ",
"            {@]@^@/@(@{@{@{@{@{@{@{@{@{@{@{@{@{@{@{@{@{@{@{@{@{@{@{@{@{@{@{@{@{@{@{@{@{@{@{@{@{@{@{@{@{@{@{@{@{@{@{@{@{@{@{@{@{@{@{@{@{@{@{@{@{@{@{@{@{@{@{@{@{@{@{@{@{@{@{@{@{@{@{@{@{@{@{@{@{@{@{@_@:@<@[@}@|@1@2@          ",
"                3@3@4@5@6@7@7@7@7@7@7@7@7@7@7@7@7@7@7@7@7@7@7@7@7@7@7@7@7@7@7@7@7@7@7@7@7@7@7@7@7@7@7@7@7@7@7@7@7@7@7@7@7@7@7@7@7@7@7@7@7@7@7@7@7@7@7@7@7@7@7@7@7@7@7@7@7@7@7@7@7@7@7@7@7@7@7@7@7@7@8@9@0@0@9@7@              ",
"                    a@b@c@d@d@d@d@d@d@d@d@d@d@d@d@d@d@d@d@d@d@d@d@d@d@d@d@d@d@d@d@d@d@d@d@d@d@d@d@d@d@d@d@d@d@d@d@d@d@d@d@d@d@d@d@d@d@d@d@d@d@d@d@d@d@d@d@d@d@d@d@d@d@d@d@d@d@d@d@d@d@d@d@d@d@d@d@d@e@f@g@f@                  "};
