/* XPM */
static char * green[] = {
"18 12 116 2",
"  	c None",
". 	c #FFFFFF",
"+ 	c #ABBEAB",
"@ 	c #498649",
"# 	c #137913",
"$ 	c #118E11",
"% 	c #45B245",
"& 	c #A8DFA8",
"* 	c #7C917C",
"= 	c #0E520E",
"- 	c #0C6D0C",
"; 	c #0A870A",
"> 	c #089F08",
", 	c #06B306",
"' 	c #05BF05",
") 	c #76DC76",
"! 	c #ACB1AC",
"~ 	c #103D10",
"{ 	c #0D5A0D",
"] 	c #0B770B",
"^ 	c #099309",
"/ 	c #06AF06",
"( 	c #04C804",
"_ 	c #02DB02",
": 	c #03DB03",
"< 	c #A7ECA7",
"[ 	c #FDFDFD",
"} 	c #FCFCFC",
"| 	c #4C584C",
"1 	c #104010",
"2 	c #0D5D0D",
"3 	c #0B7B0B",
"4 	c #089808",
"5 	c #06B606",
"6 	c #03D303",
"7 	c #01F101",
"8 	c #01F001",
"9 	c #41DE41",
"0 	c #F8F8F8",
"a 	c #F7F7F7",
"b 	c #F6F6F6",
"c 	c #192819",
"d 	c #103E10",
"e 	c #0D5B0D",
"f 	c #0B780B",
"g 	c #089508",
"h 	c #06B206",
"i 	c #04CD04",
"j 	c #02E202",
"k 	c #0CCE0C",
"l 	c #EEEEEE",
"m 	c #ECECEC",
"n 	c #EAEAEA",
"o 	c #E9E9E9",
"p 	c #1A221A",
"q 	c #103810",
"r 	c #0E540E",
"s 	c #0C700C",
"t 	c #098B09",
"u 	c #07A407",
"v 	c #05B905",
"w 	c #04C704",
"x 	c #04C604",
"y 	c #0DBB0D",
"z 	c #E1E1E1",
"A 	c #DCDCDC",
"B 	c #D9D9D9",
"C 	c #D7D7D7",
"D 	c #444444",
"E 	c #112E11",
"F 	c #0F490F",
"G 	c #0D620D",
"H 	c #0B7A0B",
"I 	c #098F09",
"J 	c #08A008",
"K 	c #07AA07",
"L 	c #45B745",
"M 	c #D3D3D3",
"N 	c #CCCCCC",
"O 	c #C8C8C8",
"P 	c #C5C5C5",
"Q 	c #888888",
"R 	c #122012",
"S 	c #103910",
"T 	c #0E510E",
"U 	c #0D660D",
"V 	c #0A850A",
"W 	c #098C09",
"X 	c #A9D4A9",
"Y 	c #CACACA",
"Z 	c #C2C2C2",
"` 	c #BCBCBC",
" .	c #B9B9B9",
"..	c #BABABA",
"+.	c #616161",
"@.	c #122712",
"#.	c #103C10",
"$.	c #0E4F0E",
"%.	c #0D5E0D",
"&.	c #0C690C",
"*.	c #0C6F0C",
"=.	c #79AF79",
"-.	c #C0C0C0",
";.	c #8B8B8B",
">.	c #435143",
",.	c #183C18",
"'.	c #164816",
").	c #497749",
"!.	c #A9C1A9",
"~.	c #FEFEFE",
"{.	c #C7C7C7",
"].	c #CBCBCB",
"^.	c #D5D5D5",
"/.	c #DFDFDF",
"(.	c #F3F3F3",
"_.	c #F9F9F9",
". . . . . . . . . . . . . . . . . . ",
". . . . . . + @ # $ % & . . . . . . ",
". . . . . * = - ; > , ' ) . . . . . ",
". . . . ! ~ { ] ^ / ( _ : < . . . . ",
"[ } } } | 1 2 3 4 5 6 7 8 9 . . . . ",
"0 a b b c d e f g h i j j k . . . . ",
"l m n o p q r s t u v w x y . . . . ",
"z A B C D E F G H I J K K L . . . . ",
"M N O P Q R S T U f V W W X . . . . ",
"Y Z `  ...+.@.#.$.%.&.*.=.. . . . . ",
"Y Z `  ...-.;.>.,.'.).!.~.. . . . . ",
"M N O P {.].^./.n (._.[ . . . . . . "};
