/* XPM */
static char * na_xpm[] = {
"47 26 292 2",
"  	c None",
". 	c #FFFF1B",
"+ 	c #FFFF1A",
"@ 	c #FFFF19",
"# 	c #FFFF18",
"$ 	c #FFF816",
"% 	c #FFF716",
"& 	c #FFFF1D",
"* 	c #FFFB19",
"= 	c #FFF118",
"- 	c #FFF619",
"; 	c #F6E517",
"> 	c #FFFF22",
", 	c #FFFF20",
"' 	c #FFFF1E",
") 	c #FFF71B",
"! 	c #FAE91A",
"~ 	c #F4E319",
"{ 	c #F2E219",
"] 	c #FCEB1A",
"^ 	c #FFF01B",
"/ 	c #EADB18",
"( 	c #CCBE15",
"_ 	c #C5B814",
": 	c #FFFF26",
"< 	c #FFFF24",
"[ 	c #FFFF21",
"} 	c #F8E71D",
"| 	c #EFDE1C",
"1 	c #ECDC1C",
"2 	c #E9D91C",
"3 	c #E8D81B",
"4 	c #EBDB1C",
"5 	c #E6D61B",
"6 	c #D3C519",
"7 	c #C0B317",
"8 	c #FFFF29",
"9 	c #FFFF27",
"0 	c #FFFB23",
"a 	c #F0E01F",
"b 	c #E6D61E",
"c 	c #E3D41D",
"d 	c #E2D31D",
"e 	c #DECF1D",
"f 	c #CEC01B",
"g 	c #BCB018",
"h 	c #FFFF2C",
"i 	c #FFFF2A",
"j 	c #FFF625",
"k 	c #EADC21",
"l 	c #DFD120",
"m 	c #DED01F",
"n 	c #DDCF1F",
"o 	c #D9CC1F",
"p 	c #C8BB1C",
"q 	c #B2A619",
"r 	c #AA9F18",
"s 	c #FFF228",
"t 	c #E5D823",
"u 	c #DACD22",
"v 	c #D9CC21",
"w 	c #D8CB21",
"x 	c #D1C420",
"y 	c #AFA41B",
"z 	c #877F15",
"A 	c #FFFF30",
"B 	c #FFF42D",
"C 	c #E2D427",
"D 	c #D6C925",
"E 	c #D4C724",
"F 	c #D3C624",
"G 	c #CFC324",
"H 	c #B0A51E",
"I 	c #766E14",
"J 	c #746D14",
"K 	c #FFFF32",
"L 	c #F2E42D",
"M 	c #D5C928",
"N 	c #CFC326",
"O 	c #8A8219",
"P 	c #000000",
"Q 	c #171604",
"R 	c #45410C",
"S 	c #B8AD21",
"T 	c #CEC226",
"U 	c #CDC126",
"V 	c #B8AD22",
"W 	c #847D18",
"X 	c #726B15",
"Y 	c #FFFD36",
"Z 	c #FFF534",
"` 	c #E2D62D",
" .	c #CEC229",
"..	c #CABF28",
"+.	c #867F1A",
"@.	c #706A16",
"#.	c #433F0D",
"$.	c #C9BE28",
"%.	c #C0B626",
"&.	c #978F1E",
"*.	c #6D6716",
"=.	c #A49B21",
"-.	c #FAEC37",
";.	c #EEE134",
">.	c #D0C52E",
",.	c #C6BB2C",
"'.	c #C5BA2B",
").	c #837C1C",
"!.	c #161504",
"~.	c #413E0E",
"{.	c #C4B92B",
"].	c #BFB42A",
"^.	c #999122",
"/.	c #5D5814",
"(.	c #89811E",
"_.	c #ECE038",
":.	c #DFD435",
"<.	c #C6BB2F",
"[.	c #C0B62D",
"}.	c #80791E",
"|.	c #2A280A",
"1.	c #6A6519",
"2.	c #403C0F",
"3.	c #BFB52D",
"4.	c #BBB12C",
"5.	c #958E23",
"6.	c #534F13",
"7.	c #7A731D",
"8.	c #E4D93A",
"9.	c #D6CC36",
"0.	c #BFB630",
"a.	c #BBB22F",
"b.	c #7C761F",
"c.	c #3E3B0F",
"d.	c #534F15",
"e.	c #151405",
"f.	c #68631A",
"g.	c #BAB12F",
"h.	c #B5AC2E",
"i.	c #8E8824",
"j.	c #4F4B14",
"k.	c #736E1D",
"l.	c #D5CB3A",
"m.	c #CBC337",
"n.	c #BAB233",
"o.	c #B6AE31",
"p.	c #797420",
"q.	c #3C3A10",
"r.	c #A29A2B",
"s.	c #141305",
"t.	c #28260A",
"u.	c #514D15",
"v.	c #B4AC31",
"w.	c #AAA32E",
"x.	c #7D7822",
"y.	c #454112",
"z.	c #6A651D",
"A.	c #C0B739",
"B.	c #BEB538",
"C.	c #B6AE36",
"D.	c #B1A934",
"E.	c #767022",
"F.	c #3B3811",
"G.	c #625E1C",
"H.	c #27250B",
"I.	c #8A8328",
"J.	c #AEA634",
"K.	c #99922D",
"L.	c #5E5A1C",
"M.	c #35320F",
"N.	c #5F5B1C",
"O.	c #B9B13A",
"P.	c #BCB43B",
"Q.	c #B7AF3A",
"R.	c #AEA737",
"S.	c #ACA536",
"T.	c #ABA436",
"U.	c #726E24",
"V.	c #393712",
"W.	c #999230",
"X.	c #5F5B1E",
"Y.	c #A6A035",
"Z.	c #88822B",
"`.	c #494617",
" +	c #323010",
".+	c #656120",
"++	c #BAB33F",
"@+	c #B4AE3D",
"#+	c #A9A339",
"$+	c #A6A038",
"%+	c #A7A138",
"&+	c #6F6B25",
"*+	c #373512",
"=+	c #4A4719",
"-+	c #121206",
";+	c #827D2B",
">+	c #A49F37",
",+	c #9A9534",
"'+	c #726E26",
")+	c #3C3A14",
"!+	c #3D3B14",
"~+	c #A59F3C",
"{+	c #A09A3B",
"]+	c #A19B3B",
"^+	c #A29C3B",
"/+	c #A09A3A",
"(+	c #979237",
"_+	c #7B772D",
":+	c #4C4A1C",
"<+	c #2E2C10",
"[+	c #454319",
"}+	c #878335",
"|+	c #8F8B38",
"1+	c #9A953C",
"2+	c #9C973D",
"3+	c #9D983D",
"4+	c #9B963C",
"5+	c #938E39",
"6+	c #78752F",
"7+	c #4D4A1E",
"8+	c #2B2A11",
"9+	c #2E2C12",
"0+	c #7F7B35",
"a+	c #7E7B34",
"b+	c #8A8639",
"c+	c #95913E",
"d+	c #97933F",
"e+	c #98943F",
"f+	c #96923E",
"g+	c #8E8A3B",
"h+	c #757230",
"i+	c #4A481F",
"j+	c #2A2911",
"k+	c #4B491F",
"l+	c #7A7736",
"m+	c #84823B",
"n+	c #8D8B3F",
"o+	c #8F8C40",
"p+	c #928F41",
"q+	c #939041",
"r+	c #908D40",
"s+	c #8E8B3F",
"t+	c #88853C",
"u+	c #706E32",
"v+	c #484620",
"w+	c #292812",
"x+	c #494720",
"y+	c #767339",
"z+	c #726F37",
"A+	c #757238",
"B+	c #7E7C3D",
"C+	c #878441",
"D+	c #898742",
"E+	c #8A8742",
"F+	c #898642",
"G+	c #84813F",
"H+	c #7A773A",
"I+	c #6F6D35",
"J+	c #615F2F",
"K+	c #434120",
"L+	c #272613",
"M+	c #464522",
"N+	c #696836",
"O+	c #55542C",
"P+	c #4C4B27",
"Q+	c #58572D",
"R+	c #666534",
"S+	c #6A6836",
"T+	c #686735",
"U+	c #5E5D30",
"V+	c #494825",
"W+	c #3A3A1E",
"X+	c #323119",
"Y+	c #272614",
"Z+	c #272714",
"`+	c #444323",
" @	c #494828",
".@	c #474727",
"+@	c #3E3E22",
"@@	c #39391F",
"#@	c #38381F",
"$@	c #37361E",
"%@	c #31311B",
"&@	c #272715",
"*@	c #30301A",
"=@	c #66663C",
"-@	c #585833",
";@	c #50502F",
">@	c #4F4F2F",
",@	c #4E4E2E",
"'@	c #4A4A2C",
")@	c #444428",
"                                                                                              ",
"                    . + @ @ @ @ @ @ @ @ @ @ @ @ @ @ @ @ @ @ @ @ @ @ @ # $ %                   ",
"                & & & . + + + + + + + + + + + + + + + + + + + + + + + * = - * ;               ",
"            > , ' & ) ! ~ ~ { { { { { { { { { { { { { { { { { { { { { { ~ ] ^ / ( _           ",
"          : < [ } | 1 2 2 3 3 3 3 3 3 3 3 3 3 3 3 3 3 3 3 3 3 3 3 3 3 3 2 4 4 5 6 7 7         ",
"        8 9 0 a b c c c c c c c c c c c c c c c c c c c c c c c c c d c c c c d e f g g       ",
"      h i j k l m m m m m m m m m m m m m m m m m m m m m m m m m m m m m n n n n o p q r     ",
"      h s t u v v v v v v v v v v v v v v v v v v v v v v v v v v v v v v v w w w w x y z     ",
"    A B C D E E E E E E E E E E E E E E E E E E E E E E E E E E E E E E E E E F F F G H I J   ",
"    K L M N N N N N N N N N O P Q N N O P R N N N R N N S P P S N N N N N N N N T T U V W X   ",
"  Y Z `  ...................+.P P @...+.P #.....@.@.....@.P P @...................$.$.%.&.*.=.",
"  -.;.>.,.'.'.'.'.'.'.'.'.'.).P P !.'.).P ~.'.'.!.).'.'.~.P P ~.'.'.'.'.'.'.'.'.'.'.{.].^./.(.",
"  _.:.<.[.[.[.[.[.[.[.[.[.[.}.P |.P 1.}.P 2.[.[.P [.[.}.P 2.2.P [.[.[.[.[.[.[.[.[.[.3.4.5.6.7.",
"  8.9.0.a.a.a.a.a.a.a.a.a.a.b.P c.d.e.b.P c.a.b.d.a.a.c.P b.b.P f.a.a.a.a.a.a.a.a.a.g.h.i.j.k.",
"  l.m.n.o.o.o.o.o.o.o.o.o.o.p.P q.r.s.t.P q.o.u.r.o.o.P P p.p.P s.o.o.o.o.o.o.o.o.o.v.w.x.y.z.",
"  A.B.C.D.D.D.D.D.D.D.D.D.D.E.P F.D.G.P P F.D.H.D.D.I.P P P P P P I.D.D.D.D.D.D.D.D.J.K.L.M.N.",
"  O.P.Q.R.S.T.S.S.S.S.S.S.S.U.P V.S.W.P P V.S.V.S.S.X.P V.U.U.V.P X.S.S.S.S.S.S.S.T.Y.Z.`. +.+",
"    ++@+#+$+$+$+%+%+%+%+%+%+&+P *+%+%+=+P *+&+&+%+%+-+-+;+%+%+;+P -+%+%+%+%+%+%+$+>+,+'+)+!+  ",
"    ~+{+{+]+]+]+]+^+^+^+^+^+^+^+^+^+^+^+^+^+^+^+^+^+^+^+^+^+^+^+^+^+^+^+^+^+^+]+/+(+_+:+<+[+  ",
"      }+|+1+2+2+2+2+3+3+3+3+3+3+3+3+3+3+3+3+3+3+3+3+3+3+3+3+3+3+3+3+3+3+3+3+2+4+5+6+7+8+9+    ",
"      0+a+b+c+d+d+d+d+e+e+e+e+e+e+e+e+e+e+e+e+e+e+e+e+e+e+e+e+e+e+e+e+e+e+d+f+g+h+i+j+j+k+    ",
"        l+l+m+n+o+p+p+p+p+p+q+q+q+q+q+q+q+q+q+q+q+q+q+q+q+q+q+q+q+q+p+p+r+s+t+u+v+w+w+x+      ",
"          y+z+z+A+B+C+D+D+E+D+D+D+D+D+D+D+D+D+D+D+D+D+D+D+D+D+D+D+D+F+G+H+I+J+K+L+L+M+        ",
"            N+O+P+Q+R+S+S+S+S+S+S+S+S+S+S+S+S+S+S+S+S+S+S+S+S+S+S+S+T+U+V+W+X+Y+Z+`+          ",
"                 @ @.@+@@@#@#@#@#@#@#@#@#@#@#@#@#@#@#@#@#@#@#@#@#@#@$@%@&@&@*@#@              ",
"                    =@-@;@>@>@>@>@>@>@>@>@>@>@>@>@>@>@>@>@>@>@>@>@>@,@'@)@'@                  "};
