/* XPM */
static char * orange_xpm[] = {
"18 12 114 2",
"  	c None",
". 	c #FFFBF7",
"+ 	c #BEB5A7",
"@ 	c #86704B",
"# 	c #79571A",
"$ 	c #8D641A",
"% 	c #B28D4B",
"& 	c #DFCAA7",
"* 	c #91887A",
"= 	c #513B13",
"- 	c #6C4D13",
"; 	c #865D13",
"> 	c #9E6C13",
", 	c #B27913",
"' 	c #BE8113",
") 	c #DBB87A",
"! 	c #B1ADA7",
"~ 	c #3D2E13",
"{ 	c #5A4113",
"] 	c #765313",
"^ 	c #936513",
"/ 	c #AE7713",
"( 	c #C88713",
"_ 	c #DA9313",
": 	c #EBD3A7",
"< 	c #FDF9F5",
"[ 	c #FCF8F4",
"} 	c #58534B",
"| 	c #403013",
"1 	c #5D4313",
"2 	c #7A5513",
"3 	c #986813",
"4 	c #B57B13",
"5 	c #D38E13",
"6 	c #F0A113",
"7 	c #EFA013",
"8 	c #DDA94B",
"9 	c #F8F4F0",
"0 	c #F7F3EF",
"a 	c #F6F2EE",
"b 	c #28231A",
"c 	c #3E2F13",
"d 	c #5B4113",
"e 	c #785413",
"f 	c #956613",
"g 	c #B17813",
"h 	c #CC8A13",
"i 	c #E19713",
"j 	c #CE8E1A",
"k 	c #EEEBE7",
"l 	c #ECE8E4",
"m 	c #EAE6E2",
"n 	c #E9E5E2",
"o 	c #221F19",
"p 	c #382B13",
"q 	c #543D13",
"r 	c #704E13",
"s 	c #8A6013",
"t 	c #A36F13",
"u 	c #B87D13",
"v 	c #C68613",
"w 	c #BA811A",
"x 	c #E1DDD9",
"y 	c #DCD9D5",
"z 	c #D9D6D2",
"A 	c #D7D4D1",
"B 	c #444342",
"C 	c #2E2413",
"D 	c #483513",
"E 	c #624613",
"F 	c #8F6313",
"G 	c #9F6D13",
"H 	c #A97313",
"I 	c #B7904B",
"J 	c #D3D0CC",
"K 	c #CCC9C6",
"L 	c #C8C5C1",
"M 	c #C5C2BF",
"N 	c #888684",
"O 	c #201C13",
"P 	c #392C13",
"Q 	c #503A13",
"R 	c #654813",
"S 	c #775313",
"T 	c #855C13",
"U 	c #8C6113",
"V 	c #D4C4A7",
"W 	c #CAC6C3",
"X 	c #C2BFBC",
"Y 	c #BCB9B6",
"Z 	c #B9B6B3",
"` 	c #BAB7B4",
" .	c #61605E",
"..	c #272013",
"+.	c #3C2D13",
"@.	c #4E3913",
"#.	c #5E4313",
"$.	c #694A13",
"%.	c #6F4E13",
"&.	c #AF9C79",
"*.	c #C0BDBA",
"=.	c #8B8987",
"-.	c #514C42",
";.	c #3C2F19",
">.	c #48381A",
",.	c #77674A",
"'.	c #C0B6A5",
").	c #FEFAF6",
"!.	c #C7C4C0",
"~.	c #CBC8C5",
"{.	c #D5D1CE",
"].	c #DFDBD8",
"^.	c #F3EFEB",
"/.	c #F9F6F2",
". . . . . . . . . . . . . . . . . . ",
". . . . . . + @ # $ % & . . . . . . ",
". . . . . * = - ; > , ' ) . . . . . ",
". . . . ! ~ { ] ^ / ( _ _ : . . . . ",
"< [ [ [ } | 1 2 3 4 5 6 7 8 . . . . ",
"9 0 a a b c d e f g h i i j . . . . ",
"k l m n o p q r s t u v v w . . . . ",
"x y z A B C D E 2 F G H H I . . . . ",
"J K L M N O P Q R S T U U V . . . . ",
"W X Y Z `  ...+.@.#.$.%.&.. . . . . ",
"W X Y Z ` *.=.-.;.>.,.'.).. . . . . ",
"J K L M !.~.{.].m ^./.< . . . . . . "};
