/* XPM */
static char * started[] = {
"84 26 317 2",
"  	c None",
". 	c #28FF12",
"+ 	c #27FF11",
"@ 	c #25FF11",
"# 	c #25FF10",
"$ 	c #24FF10",
"% 	c #21FF0F",
"& 	c #2BFF16",
"* 	c #2AFF15",
"= 	c #27FF14",
"- 	c #26FF13",
"; 	c #25FF13",
"> 	c #24FF12",
", 	c #23FF12",
"' 	c #21F611",
") 	c #30FF1B",
"! 	c #2EFF1A",
"~ 	c #2AFF18",
"{ 	c #28FF17",
"] 	c #27FF16",
"^ 	c #24FA15",
"/ 	c #23F414",
"( 	c #23F214",
"_ 	c #25FC15",
": 	c #25FF15",
"< 	c #22EA13",
"[ 	c #1ECC11",
"} 	c #1DC510",
"| 	c #33FF1F",
"1 	c #30FF1E",
"2 	c #2BFF1B",
"3 	c #27F818",
"4 	c #25EF17",
"5 	c #25EC17",
"6 	c #25E917",
"7 	c #24E816",
"8 	c #25EB17",
"9 	c #24E616",
"0 	c #21D314",
"a 	c #1EC013",
"b 	c #35FF23",
"c 	c #33FF22",
"d 	c #2EFF1E",
"e 	c #29F01B",
"f 	c #27E61A",
"g 	c #26E319",
"h 	c #26E219",
"i 	c #26DE19",
"j 	c #23CE17",
"k 	c #20BC15",
"l 	c #38FF28",
"m 	c #36FF26",
"n 	c #30FF22",
"o 	c #2BEA1E",
"p 	c #29DF1D",
"q 	c #28DE1C",
"r 	c #28DD1C",
"s 	c #28D91C",
"t 	c #24C81A",
"u 	c #20B217",
"v 	c #1FAA16",
"w 	c #38FF2A",
"x 	c #32FF25",
"y 	c #2DE521",
"z 	c #2BDA20",
"A 	c #2AD91F",
"B 	c #2AD81F",
"C 	c #29D11E",
"D 	c #22AF19",
"E 	c #1A8713",
"F 	c #3AFF2D",
"G 	c #36FF2A",
"H 	c #2FE225",
"I 	c #2DD623",
"J 	c #2CD422",
"K 	c #2CD322",
"L 	c #2BCF22",
"M 	c #25B01C",
"N 	c #187613",
"O 	c #187413",
"P 	c #3DFF31",
"Q 	c #36F22C",
"R 	c #30D526",
"S 	c #2ECF25",
"T 	c #1E8A18",
"U 	c #0A2E08",
"V 	c #000000",
"W 	c #145C10",
"X 	c #197314",
"Y 	c #0F450C",
"Z 	c #051704",
"` 	c #2ECE25",
" .	c #2ECD25",
"..	c #29B821",
"+.	c #1D8418",
"@.	c #197214",
"#.	c #40FF36",
"$.	c #3EFF34",
"%.	c #36E22D",
"&.	c #31CE29",
"*.	c #30CA28",
"=.	c #2AB323",
"-.	c #051604",
";.	c #20861A",
">.	c #155A11",
",.	c #0A2D08",
"'.	c #10430D",
").	c #259D1F",
"!.	c #1A7016",
"~.	c #30C928",
"{.	c #2EC026",
"].	c #24971E",
"^.	c #1A6D16",
"/.	c #27A421",
"(.	c #40FA37",
"_.	c #3DEE34",
":.	c #35D02E",
"<.	c #33C62C",
"[.	c #32C52B",
"}.	c #21831C",
"|.	c #0B2C09",
"1.	c #10410E",
"2.	c #1B6D17",
"3.	c #32C42B",
"4.	c #31BF2A",
"5.	c #279922",
"6.	c #185D14",
"7.	c #23891E",
"8.	c #40EC39",
"9.	c #3DDF36",
"0.	c #36C630",
"a.	c #34C02E",
"b.	c #289523",
"c.	c #051505",
"d.	c #1C6A19",
"e.	c #22801E",
"f.	c #11400F",
"g.	c #2EAA28",
"h.	c #175514",
"i.	c #0B2A0A",
"j.	c #34BF2E",
"k.	c #33BB2D",
"l.	c #299524",
"m.	c #165314",
"n.	c #217A1D",
"o.	c #42E43D",
"p.	c #3ED63A",
"q.	c #38BF34",
"r.	c #36BB32",
"s.	c #185316",
"t.	c #0C290B",
"u.	c #061505",
"v.	c #247C21",
"w.	c #123E10",
"x.	c #1E681B",
"y.	c #36BA32",
"z.	c #35B531",
"A.	c #298E26",
"B.	c #174F15",
"C.	c #21731F",
"D.	c #42D53E",
"E.	c #3FCB3C",
"F.	c #3ABA37",
"G.	c #38B635",
"H.	c #257923",
"I.	c #061406",
"J.	c #2B8E29",
"K.	c #123C11",
"L.	c #195117",
"M.	c #0C280B",
"N.	c #1F651D",
"O.	c #31A22F",
"P.	c #38B435",
"Q.	c #35AA32",
"R.	c #277D25",
"S.	c #154514",
"T.	c #216A1F",
"U.	c #3FC03D",
"V.	c #3FBE3D",
"W.	c #3CB63A",
"X.	c #3AB138",
"Y.	c #194F19",
"Z.	c #20621F",
"`.	c #133B12",
" +	c #267625",
".+	c #39AE37",
"++	c #329930",
"@+	c #1F5E1E",
"#+	c #113511",
"$+	c #1F5F1E",
"%+	c #41B940",
"&+	c #42BC41",
"*+	c #40B73F",
"=+	c #3DAE3C",
"-+	c #3CAC3B",
";+	c #3CAB3B",
">+	c #2E862E",
",+	c #061306",
"'+	c #287227",
")+	c #215F20",
"!+	c #359934",
"~+	c #0D260D",
"{+	c #143913",
"]+	c #1A4C1A",
"^+	c #3AA639",
"/+	c #30882F",
"(+	c #1A4919",
"_+	c #113211",
":+	c #236523",
"<+	c #45BA45",
"[+	c #43B443",
"}+	c #3FA93F",
"|+	c #3EA63E",
"1+	c #3EA73E",
"2+	c #296F29",
"3+	c #0D250D",
"4+	c #143714",
"5+	c #308230",
"6+	c #1B4A1B",
"7+	c #225C22",
"8+	c #071207",
"9+	c #3DA43D",
"0+	c #399A39",
"a+	c #2A722A",
"b+	c #163C16",
"c+	c #173D17",
"d+	c #41A542",
"e+	c #40A041",
"f+	c #40A141",
"g+	c #40A241",
"h+	c #3FA040",
"i+	c #3C973D",
"j+	c #317B32",
"k+	c #1E4C1F",
"l+	c #122E12",
"m+	c #1B451C",
"n+	c #39873B",
"o+	c #3C8F3E",
"p+	c #419A43",
"q+	c #429C44",
"r+	c #429D44",
"s+	c #419B43",
"t+	c #3E9340",
"u+	c #337834",
"v+	c #204D21",
"w+	c #122B13",
"x+	c #132E14",
"y+	c #397F3B",
"z+	c #397E3B",
"A+	c #3E8A41",
"B+	c #439546",
"C+	c #449747",
"D+	c #449847",
"E+	c #439646",
"F+	c #408E43",
"G+	c #347537",
"H+	c #214A23",
"I+	c #132A13",
"J+	c #224B23",
"K+	c #3A7A3D",
"L+	c #3F8443",
"M+	c #448D47",
"N+	c #448F48",
"O+	c #46924A",
"P+	c #46934A",
"Q+	c #459049",
"R+	c #448E48",
"S+	c #418845",
"T+	c #357038",
"U+	c #224824",
"V+	c #132914",
"W+	c #234925",
"X+	c #3C7640",
"Y+	c #3A723E",
"Z+	c #3B7540",
"`+	c #407E45",
" @	c #458749",
".@	c #46894B",
"+@	c #468A4B",
"@@	c #46894A",
"#@	c #438448",
"$@	c #3E7A42",
"%@	c #396F3C",
"&@	c #316135",
"*@	c #224324",
"=@	c #142715",
"-@	c #244626",
";@	c #39693D",
">@	c #2E5532",
",@	c #294C2C",
"'@	c #305834",
")@	c #37663C",
"!@	c #396A3E",
"~@	c #38683D",
"{@	c #335E37",
"]@	c #27492B",
"^@	c #203A22",
"/@	c #1B321D",
"(@	c #152716",
"_@	c #152717",
":@	c #254427",
"<@	c #2A492E",
"[@	c #29472D",
"}@	c #243E27",
"|@	c #213924",
"1@	c #203823",
"2@	c #203722",
"3@	c #1C311F",
"4@	c #172719",
"5@	c #1C301E",
"6@	c #3F6646",
"7@	c #36583C",
"8@	c #325037",
"9@	c #314F36",
"0@	c #304E35",
"a@	c #2E4A33",
"b@	c #2A442E",
"                                                                                                                                                                        ",
"                    . + @ @ @ @ @ @ @ @ @ @ @ @ @ @ @ @ @ @ @ @ @ @ @ @ @ @ @ @ @ @ @ @ @ @ @ @ @ @ @ @ @ @ @ @ @ @ @ @ @ @ @ @ @ @ @ @ @ @ @ # $ % %                   ",
"                & & * = - ; ; ; ; ; ; ; ; ; ; ; ; ; ; ; ; ; ; ; ; ; ; ; ; ; ; ; ; ; ; ; ; ; ; ; ; ; ; ; ; ; ; ; ; ; ; ; ; ; ; ; ; ; ; ; ; ; ; ; > , > > '               ",
"            ) ! ~ { ] ^ / / ( ( ( ( ( ( ( ( ( ( ( ( ( ( ( ( ( ( ( ( ( ( ( ( ( ( ( ( ( ( ( ( ( ( ( ( ( ( ( ( ( ( ( ( ( ( ( ( ( ( ( ( ( ( ( ( ( ( ( / _ : < [ }           ",
"          | 1 2 3 4 5 6 6 7 7 7 7 7 7 7 7 7 7 7 7 7 7 7 7 7 7 7 7 7 7 7 7 7 7 7 7 7 7 7 7 7 7 7 7 7 7 7 7 7 7 7 7 7 7 7 7 7 7 7 7 7 7 7 7 7 7 7 7 6 8 8 9 0 a a         ",
"        b c d e f g g g g g g g g g g g g g g g g g g g g g g g g g g g g g g g g g g g g g g g g g g g g g g g g g g g g g g g g g g g g g g h g g g g h i j k k       ",
"      l m n o p q q q q q q q q q q q q q q q q q q q q q q q q q q q q q q q q q q q q q q q q q q q q q q q q q q q q q q q q q q q q q q q q q q r r r r s t u v     ",
"      w x y z A A A A A A A A A A A A A A A A A A A A A A A A A A A A A A A A A A A A A A A A A A A A A A A A A A A A A A A A A A A A A A A A A A A A B B B B C D E     ",
"    F G H I J J J J J J J J J J J J J J J J J J J J J J J J J J J J J J J J J J J J J J J J J J J J J J J J J J J J J J J J J J J J J J J J J J J J J J K K K L M N O   ",
"    P Q R S S S S S S S S S S T U V V W S S V V V V V V V S S S U V X S S S Y V V V V Z W S Y V V V V V V T Y V V V V V Y S Y V V V V Y T S S S S S S S S ` `  ...+.@.  ",
"  #.$.%.&.*.*.*.*.*.*.*.*.*.=.V -.;.>.V ,.*.;.;.>.V >.;.;.*.*.=.V V ,.*.*.*.'.V >.;.;.-.V ).).;.;.V ,.;.;.=.'.V >.;.;.;.).*.'.V >.;.!.-.V ).*.*.*.*.*.*.*.*.~.~.{.].^./.",
"  (._.:.<.[.[.[.[.[.[.[.[.[.}.V }.[.[.|.V [.[.[.}.V }.[.[.[.[.}.V V V [.[.[.1.V }.[.[.1.V }.[.[.[.V 1.[.[.[.1.V }.[.[.[.[.[.1.V }.[.[.2.V 1.[.[.[.[.[.[.[.[.[.3.4.5.6.7.",
"  8.9.0.a.a.a.a.a.a.a.a.a.a.b.V c.d.b.a.a.a.a.a.e.V e.a.a.a.a.V V e.V e.a.a.f.V e.a.g.c.V g.a.a.a.V f.a.a.a.f.V h.e.e.e.g.a.f.V e.a.a.g.i.V a.a.a.a.a.a.a.a.a.j.k.l.m.n.",
"  o.p.q.r.r.r.r.r.r.r.r.r.r.r.s.t.V V u.s.r.r.r.v.V v.r.r.r.v.V w.r.V t.r.r.w.V V V V V x.r.r.r.r.V w.r.r.r.w.V V V V V v.r.w.V v.r.r.r.w.V r.r.r.r.r.r.r.r.r.y.z.A.B.C.",
"  D.E.F.G.G.G.G.G.G.G.G.G.G.G.G.G.G.H.I.V J.G.G.H.V H.G.G.G.K.V L.H.M.V J.G.K.V L.H.N.V I.G.G.G.G.V K.G.G.G.K.V H.G.G.G.G.G.K.V H.G.G.O.M.V G.G.G.G.G.G.G.G.G.P.Q.R.S.T.",
"  U.V.W.X.X.X.X.X.X.X.X.X.X.Y.V Z.X.X.`.V  +X.X. +V  +X.X.X.I.V V V V V Y.X.`.V  +X.X.V V X.X.X.X.V `.X.X.X.`.V  +X.X.X.X.X.`.V  +X.X.Y.V Y.X.X.X.X.X.X.X.X.X..+++@+#+$+",
"  %+&+*+=+-+;+-+-+-+-+-+-+-+>+V ,+'+)+,+V !+-+-+'+V '+-+-+!+V ,+'+'+)+V ~+-+{+V '+-+-+V V -+-+-+-+V {+-+-+-+{+V ]+'+'+'+'+-+{+V ]+'+)+,+V >+-+-+-+-+-+-+-+-+;+^+/+(+_+:+",
"    <+[+}+|+|+|+1+1+1+1+1+1+1+2+3+V V 4+5+1+1+1+2+V 2+1+1+6+V 7+1+1+1+8+V 5+4+V 2+1+1+8+V 5+1+1+1+V 4+1+1+1+4+V V V V V V 1+4+V V V V 4+2+1+1+1+1+1+1+1+1+|+9+0+a+b+c+  ",
"    d+e+e+f+f+f+f+g+g+g+g+g+g+g+g+g+g+g+g+g+g+g+g+g+g+g+g+g+g+g+g+g+g+g+g+g+g+g+g+g+g+g+g+g+g+g+g+g+g+g+g+g+g+g+g+g+g+g+g+g+g+g+g+g+g+g+g+g+g+g+g+g+g+g+f+h+i+j+k+l+m+  ",
"      n+o+p+q+q+q+q+r+r+r+r+r+r+r+r+r+r+r+r+r+r+r+r+r+r+r+r+r+r+r+r+r+r+r+r+r+r+r+r+r+r+r+r+r+r+r+r+r+r+r+r+r+r+r+r+r+r+r+r+r+r+r+r+r+r+r+r+r+r+r+r+r+q+s+t+u+v+w+x+    ",
"      y+z+A+B+C+C+C+C+D+D+D+D+D+D+D+D+D+D+D+D+D+D+D+D+D+D+D+D+D+D+D+D+D+D+D+D+D+D+D+D+D+D+D+D+D+D+D+D+D+D+D+D+D+D+D+D+D+D+D+D+D+D+D+D+D+D+D+D+D+D+D+C+E+F+G+H+I+I+J+    ",
"        K+K+L+M+N+O+O+O+O+O+P+P+P+P+P+P+P+P+P+P+P+P+P+P+P+P+P+P+P+P+P+P+P+P+P+P+P+P+P+P+P+P+P+P+P+P+P+P+P+P+P+P+P+P+P+P+P+P+P+P+P+P+P+P+P+P+P+O+O+Q+R+S+T+U+V+V+W+      ",
"          X+Y+Y+Z+`+ @.@.@+@.@.@.@.@.@.@.@.@.@.@.@.@.@.@.@.@.@.@.@.@.@.@.@.@.@.@.@.@.@.@.@.@.@.@.@.@.@.@.@.@.@.@.@.@.@.@.@.@.@.@.@.@.@.@.@.@.@@@#@$@%@&@*@=@=@-@        ",
"            ;@>@,@'@)@!@!@!@!@!@!@!@!@!@!@!@!@!@!@!@!@!@!@!@!@!@!@!@!@!@!@!@!@!@!@!@!@!@!@!@!@!@!@!@!@!@!@!@!@!@!@!@!@!@!@!@!@!@!@!@!@!@!@!@!@~@{@]@^@/@(@_@:@          ",
"                <@<@[@}@|@1@1@1@1@1@1@1@1@1@1@1@1@1@1@1@1@1@1@1@1@1@1@1@1@1@1@1@1@1@1@1@1@1@1@1@1@1@1@1@1@1@1@1@1@1@1@1@1@1@1@1@1@1@1@1@1@1@1@2@3@4@4@5@1@              ",
"                    6@7@8@9@9@9@9@9@9@9@9@9@9@9@9@9@9@9@9@9@9@9@9@9@9@9@9@9@9@9@9@9@9@9@9@9@9@9@9@9@9@9@9@9@9@9@9@9@9@9@9@9@9@9@9@9@9@9@9@9@9@0@a@b@a@                  "};
