/* XPM */
static char * starting_xpm[] = {
"86 26 320 2",
"  	c None",
". 	c #1AFF09",
"+ 	c #19FF08",
"@ 	c #18FF08",
"# 	c #17FF08",
"$ 	c #15FF07",
"% 	c #27FF09",
"& 	c #26FF08",
"* 	c #24FF08",
"= 	c #22FF08",
"- 	c #22FF07",
"; 	c #21FF07",
"> 	c #20FC07",
", 	c #20FF07",
"' 	c #1EEF07",
") 	c #37FF09",
"! 	c #34FF09",
"~ 	c #30FF08",
"{ 	c #2EFF08",
"] 	c #2CFD07",
"^ 	c #2AEF07",
"/ 	c #29E807",
"( 	c #28E707",
"_ 	c #2AF007",
": 	c #2BF507",
"< 	c #27E006",
"[ 	c #22C306",
"} 	c #21BC05",
"| 	c #45FF09",
"1 	c #41FF09",
"2 	c #3BFF08",
"3 	c #35E807",
"4 	c #33DF07",
"5 	c #32DD07",
"6 	c #32DA07",
"7 	c #31D906",
"8 	c #32DC07",
"9 	c #31D706",
"0 	c #2DC606",
"a 	c #29B405",
"b 	c #51FF09",
"c 	c #4DFF09",
"d 	c #45F508",
"e 	c #3EDB07",
"f 	c #3BD107",
"g 	c #3ACF06",
"h 	c #3ACE06",
"i 	c #39CB06",
"j 	c #35BC06",
"k 	c #30AB05",
"l 	c #5FFF09",
"m 	c #5BFF09",
"n 	c #51EB08",
"o 	c #48D107",
"p 	c #45C707",
"q 	c #44C606",
"r 	c #44C506",
"s 	c #43C206",
"t 	c #3DB206",
"u 	c #379E05",
"v 	c #349805",
"w 	c #68FA09",
"x 	c #5DE008",
"y 	c #53C807",
"z 	c #4FBE07",
"A 	c #4EBD06",
"B 	c #4EBC06",
"C 	c #4BB606",
"D 	c #3F9805",
"E 	c #317604",
"F 	c #73EB09",
"G 	c #6CDC08",
"H 	c #5EC007",
"I 	c #59B607",
"J 	c #58B406",
"K 	c #58B306",
"L 	c #56B006",
"M 	c #499505",
"N 	c #316403",
"O 	c #306303",
"P 	c #7FE00A",
"Q 	c #72C809",
"R 	c #64B008",
"S 	c #61AB07",
"T 	c #417205",
"U 	c #162702",
"V 	c #010101",
"W 	c #2B4D03",
"X 	c #365F04",
"Y 	c #213903",
"Z 	c #0B1401",
"` 	c #4B8505",
" .	c #61AA07",
"..	c #60A907",
"+.	c #569807",
"@.	c #3E6D05",
"#.	c #355E04",
"$.	c #8ED50A",
"%.	c #8ACF0A",
"&.	c #78B408",
"*.	c #6DA408",
"=.	c #6BA107",
"-.	c #5F8F06",
";.	c #0D1301",
">.	c #476B05",
",.	c #304803",
"'.	c #182402",
").	c #243603",
"!.	c #537D05",
"~.	c #3C5A04",
"{.	c #6BA007",
"].	c #669907",
"^.	c #507905",
"/.	c #3A5704",
"(.	c #578306",
"_.	c #95C10A",
":.	c #8EB809",
"<.	c #7CA108",
"[.	c #769908",
"}.	c #759807",
"|.	c #4E6505",
"1.	c #1A2202",
"2.	c #273303",
"3.	c #0E1201",
"4.	c #415504",
"5.	c #759707",
"6.	c #719307",
"7.	c #5B7606",
"8.	c #374803",
"9.	c #516A05",
"0.	c #9CB009",
"a.	c #94A609",
"b.	c #839308",
"c.	c #7F8F07",
"d.	c #636F05",
"e.	c #0F1101",
"f.	c #475004",
"g.	c #555F05",
"h.	c #2B3003",
"i.	c #717F06",
"j.	c #1D2002",
"k.	c #7F8E07",
"l.	c #7C8B07",
"m.	c #636F06",
"n.	c #373E03",
"o.	c #505B05",
"p.	c #A6A309",
"q.	c #9C9A09",
"r.	c #8B8908",
"s.	c #888607",
"t.	c #3D3C03",
"u.	c #1F1E02",
"v.	c #101001",
"w.	c #5B5905",
"x.	c #2E2D03",
"y.	c #4C4B04",
"z.	c #848207",
"A.	c #686606",
"B.	c #393803",
"C.	c #545304",
"D.	c #AB9209",
"E.	c #A38C08",
"F.	c #968008",
"G.	c #927D07",
"H.	c #615305",
"I.	c #110F01",
"J.	c #726105",
"K.	c #312A03",
"L.	c #413803",
"M.	c #211C02",
"N.	c #514604",
"O.	c #826F06",
"P.	c #917C07",
"Q.	c #887507",
"R.	c #655605",
"S.	c #372F03",
"T.	c #554904",
"U.	c #A97E08",
"V.	c #A87D08",
"W.	c #A17808",
"X.	c #9C7407",
"Y.	c #463403",
"Z.	c #574104",
"`.	c #342703",
" +	c #684D05",
".+	c #120E01",
"++	c #8A6706",
"@+	c #231A02",
"#+	c #9A7207",
"$+	c #866406",
"%+	c #533E04",
"&+	c #2F2302",
"*+	c #543E04",
"=+	c #B27208",
"-+	c #B57408",
";+	c #B07108",
">+	c #A86C08",
",+	c #A66A07",
"'+	c #A56A07",
")+	c #815205",
"!+	c #130C01",
"~+	c #6F4705",
"{+	c #5C3B04",
"]+	c #935E06",
"^+	c #251802",
"/+	c #382403",
"(+	c #A16707",
"_+	c #835406",
":+	c #472D03",
"<+	c #311F02",
"[+	c #623E04",
"}+	c #C36C09",
"|+	c #BD6909",
"1+	c #B16209",
"2+	c #AE6108",
"3+	c #AF6108",
"4+	c #754105",
"5+	c #271602",
"6+	c #3B2103",
"7+	c #884B06",
"8+	c #4E2B04",
"9+	c #613604",
"0+	c #140B01",
"a+	c #AC6008",
"b+	c #A25A08",
"c+	c #784206",
"d+	c #3F2303",
"e+	c #402303",
"f+	c #BC5A09",
"g+	c #B75708",
"h+	c #B85808",
"i+	c #B95808",
"j+	c #B65708",
"k+	c #AD5208",
"l+	c #8D4306",
"m+	c #572904",
"n+	c #341902",
"o+	c #4F2603",
"p+	c #A84407",
"q+	c #B24808",
"r+	c #BF4E08",
"s+	c #C24F08",
"t+	c #C34F08",
"u+	c #C04E08",
"v+	c #B64A08",
"w+	c #963D06",
"x+	c #5F2704",
"y+	c #361602",
"z+	c #391702",
"A+	c #AB3A07",
"B+	c #AA3907",
"C+	c #BA3F08",
"D+	c #C94408",
"E+	c #CC4508",
"F+	c #CD4508",
"G+	c #CA4408",
"H+	c #BF4108",
"I+	c #9D3506",
"J+	c #642204",
"K+	c #391302",
"L+	c #652204",
"M+	c #B13207",
"N+	c #C13608",
"O+	c #CE3A08",
"P+	c #D03B08",
"Q+	c #D43C08",
"R+	c #D53C08",
"S+	c #D63C08",
"T+	c #D13B08",
"U+	c #CF3A08",
"V+	c #C53808",
"W+	c #A32E06",
"X+	c #681D04",
"Y+	c #3B1002",
"Z+	c #6A1E04",
"`+	c #B92A07",
" @	c #B32907",
".@	c #B82A07",
"+@	c #C72E07",
"@@	c #D53108",
"#@	c #D93208",
"$@	c #DA3208",
"%@	c #D73108",
"&@	c #D03008",
"*@	c #C02C07",
"=@	c #AF2807",
"-@	c #992306",
";@	c #6A1804",
">@	c #3E0E02",
",@	c #6F1904",
"'@	c #B32006",
")@	c #911A05",
"!@	c #821704",
"~@	c #971B05",
"{@	c #AE1F06",
"]@	c #B52106",
"^@	c #B22006",
"/@	c #A11D06",
"(@	c #7D1604",
"_@	c #641203",
":@	c #560F03",
"<@	c #420C02",
"[@	c #430C02",
"}@	c #731504",
"|@	c #861204",
"1@	c #831204",
"2@	c #731004",
"3@	c #690E03",
"4@	c #680E03",
"5@	c #650E03",
"6@	c #5B0C03",
"7@	c #490A02",
"8@	c #590C03",
"9@	c #CE1307",
"0@	c #B01006",
"a@	c #A20F05",
"b@	c #9F0F05",
"c@	c #9C0E05",
"d@	c #950E05",
"e@	c #890C04",
"                                                                                                                                                                            ",
"                    . + @ @ @ @ @ @ @ @ @ @ @ @ @ @ @ @ @ @ @ @ @ @ @ @ @ @ @ @ @ @ @ @ @ @ @ @ @ @ @ @ @ @ @ @ @ @ @ @ @ @ @ @ @ @ @ @ @ @ @ @ @ @ # $ $                   ",
"                % % & * = = = = = = = = = = = = = = = = = = = = = = = = = = = = = = = = = = = = = = = = = = = = = = = = = = = = = = = = = = = = = - ; > , ; '               ",
"            ) ! ~ { ] ^ / / ( ( ( ( ( ( ( ( ( ( ( ( ( ( ( ( ( ( ( ( ( ( ( ( ( ( ( ( ( ( ( ( ( ( ( ( ( ( ( ( ( ( ( ( ( ( ( ( ( ( ( ( ( ( ( ( ( ( ( ( ( / _ : < [ }           ",
"          | 1 2 3 4 5 6 6 7 7 7 7 7 7 7 7 7 7 7 7 7 7 7 7 7 7 7 7 7 7 7 7 7 7 7 7 7 7 7 7 7 7 7 7 7 7 7 7 7 7 7 7 7 7 7 7 7 7 7 7 7 7 7 7 7 7 7 7 7 7 6 8 8 9 0 a a         ",
"        b c d e f g g g g g g g g g g g g g g g g g g g g g g g g g g g g g g g g g g g g g g g g g g g g g g g g g g g g g g g g g g g g g g g g h g g g g h i j k k       ",
"      l m n o p q q q q q q q q q q q q q q q q q q q q q q q q q q q q q q q q q q q q q q q q q q q q q q q q q q q q q q q q q q q q q q q q q q q q r r r r s t u v     ",
"      w x y z A A A A A A A A A A A A A A A A A A A A A A A A A A A A A A A A A A A A A A A A A A A A A A A A A A A A A A A A A A A A A A A A A A A A A A B B B B C D E     ",
"    F G H I J J J J J J J J J J J J J J J J J J J J J J J J J J J J J J J J J J J J J J J J J J J J J J J J J J J J J J J J J J J J J J J J J J J J J J J J K K K L M N O   ",
"    P Q R S S S S S S S S T U V V W S S V V V V V V V S S S U V X S S S Y V V V V Z W S Y V V V V V V T Y V T T V Z S S T V Y S S ` W V V Z W S S S S S S S S  . ...+.@.#.  ",
"  $.%.&.*.=.=.=.=.=.=.=.-.V ;.>.,.V '.=.>.>.,.V ,.>.>.=.=.-.V V '.=.=.=.).V ,.>.>.;.V !.!.>.>.V '.>.>.-.).V >.>.V V ~.=.>.V ).=.-.V V ,.>.'.V ,.=.=.=.=.=.=.=.=.{.{.].^./.(.",
"  _.:.<.[.}.}.}.}.}.}.}.|.V |.}.}.1.V }.}.}.|.V |.}.}.}.}.|.V V V }.}.}.2.V |.}.}.2.V |.}.}.}.V 2.}.}.}.2.V |.|.V V 3.}.|.V 2.}.2.V 4.}.}.}.2.V }.}.}.}.}.}.}.}.}.5.6.7.8.9.",
"  0.a.b.c.c.c.c.c.c.c.c.d.V e.f.d.c.c.c.c.c.g.V g.c.c.c.c.V V g.V g.c.c.h.V g.c.i.e.V i.c.c.c.V h.c.c.c.h.V g.g.V j.V f.g.V h.c.V V i.c.c.c.c.c.c.c.c.c.c.c.c.c.c.k.l.m.n.o.",
"  p.q.r.s.s.s.s.s.s.s.s.s.t.u.V V v.t.s.s.s.w.V w.s.s.s.w.V x.s.V u.s.s.x.V V V V V y.s.s.s.s.V x.s.s.s.x.V w.w.V x.t.v.w.V x.s.V V s.s.y.x.x.x.s.s.s.s.s.s.s.s.s.s.z.A.B.C.",
"  D.E.F.G.G.G.G.G.G.G.G.G.G.G.G.H.I.V J.G.G.H.V H.G.G.G.K.V L.H.M.V J.G.K.V L.H.N.V I.G.G.G.G.V K.G.G.G.K.V H.H.V K.O.I.M.V K.G.V V O.G.N.K.I.V G.G.G.G.G.G.G.G.G.P.Q.R.S.T.",
"  U.V.W.X.X.X.X.X.X.X.X.Y.V Z.X.X.`.V  +X.X. +V  +X.X.X..+V V V V V Y.X.`.V  +X.X.V V X.X.X.X.V `.X.X.X.`.V  + +V `.X.Z.V V `.X.`.V Y.X.X.++@+V X.X.X.X.X.X.X.X.X.#+$+%+&+*+",
"  =+-+;+>+,+'+,+,+,+,+,+)+V !+~+{+!+V ]+,+,+~+V ~+,+,+]+V !+~+~+{+V ^+,+/+V ~+,+,+V V ,+,+,+,+V /+,+,+,+/+V ~+~+V /+,+]+V V /+,+{+V !+{+~+^+V V ,+,+,+,+,+,+,+,+'+(+_+:+<+[+",
"    }+|+1+2+2+2+3+3+3+3+3+4+5+V V 6+7+3+3+3+4+V 4+3+3+8+V 9+3+3+3+0+V 7+6+V 4+3+3+0+V 7+3+3+3+V 6+3+3+3+6+V 4+4+V 6+3+3+8+V 6+3+3+4+0+V V 5+4+V 3+3+3+3+3+3+3+2+a+b+c+d+e+  ",
"    f+g+g+h+h+h+h+i+i+i+i+i+i+i+i+i+i+i+i+i+i+i+i+i+i+i+i+i+i+i+i+i+i+i+i+i+i+i+i+i+i+i+i+i+i+i+i+i+i+i+i+i+i+i+i+i+i+i+i+i+i+i+i+i+i+i+i+i+i+i+i+i+i+i+i+i+h+j+k+l+m+n+o+  ",
"      p+q+r+s+s+s+s+t+t+t+t+t+t+t+t+t+t+t+t+t+t+t+t+t+t+t+t+t+t+t+t+t+t+t+t+t+t+t+t+t+t+t+t+t+t+t+t+t+t+t+t+t+t+t+t+t+t+t+t+t+t+t+t+t+t+t+t+t+t+t+t+t+t+t+s+u+v+w+x+y+z+    ",
"      A+B+C+D+E+E+E+E+F+F+F+F+F+F+F+F+F+F+F+F+F+F+F+F+F+F+F+F+F+F+F+F+F+F+F+F+F+F+F+F+F+F+F+F+F+F+F+F+F+F+F+F+F+F+F+F+F+F+F+F+F+F+F+F+F+F+F+F+F+F+F+F+F+E+G+H+I+J+K+K+L+    ",
"        M+M+N+O+P+Q+R+R+R+R+S+S+S+S+S+S+S+S+S+S+S+S+S+S+S+S+S+S+S+S+S+S+S+S+S+S+S+S+S+S+S+S+S+S+S+S+S+S+S+S+S+S+S+S+S+S+S+S+S+S+S+S+S+S+S+S+S+S+S+R+Q+T+U+V+W+X+Y+Y+Z+      ",
"          `+ @ @.@+@@@#@#@$@#@#@#@#@#@#@#@#@#@#@#@#@#@#@#@#@#@#@#@#@#@#@#@#@#@#@#@#@#@#@#@#@#@#@#@#@#@#@#@#@#@#@#@#@#@#@#@#@#@#@#@#@#@#@#@#@#@#@#@%@&@*@=@-@;@>@>@,@        ",
"            '@)@!@~@{@]@]@]@]@]@]@]@]@]@]@]@]@]@]@]@]@]@]@]@]@]@]@]@]@]@]@]@]@]@]@]@]@]@]@]@]@]@]@]@]@]@]@]@]@]@]@]@]@]@]@]@]@]@]@]@]@]@]@]@]@]@]@^@/@(@_@:@<@[@}@          ",
"                |@|@1@2@3@4@4@4@4@4@4@4@4@4@4@4@4@4@4@4@4@4@4@4@4@4@4@4@4@4@4@4@4@4@4@4@4@4@4@4@4@4@4@4@4@4@4@4@4@4@4@4@4@4@4@4@4@4@4@4@4@4@4@4@4@5@6@7@7@8@4@              ",
"                    9@0@a@b@b@b@b@b@b@b@b@b@b@b@b@b@b@b@b@b@b@b@b@b@b@b@b@b@b@b@b@b@b@b@b@b@b@b@b@b@b@b@b@b@b@b@b@b@b@b@b@b@b@b@b@b@b@b@b@b@b@b@b@c@d@e@d@                  "};
