/* XPM */
static char * stopped[] = {
"81 26 315 2",
"  	c None",
". 	c #FFBE0A",
"+ 	c #FFB60A",
"@ 	c #FFB009",
"# 	c #FFAF09",
"$ 	c #FFAE09",
"% 	c #FFA709",
"& 	c #FF9B08",
"* 	c #FF9A08",
"= 	c #FFB90D",
"- 	c #FFB50C",
"; 	c #FFAA0C",
"> 	c #FFA30B",
", 	c #FFA20B",
"' 	c #FF9E0B",
") 	c #FF970A",
"! 	c #FF9B0A",
"~ 	c #F6900A",
"{ 	c #FFBF10",
"] 	c #FFB70F",
"^ 	c #FFA90E",
"/ 	c #FFA10D",
"( 	c #FF9A0D",
"_ 	c #FA920C",
": 	c #F48E0C",
"< 	c #F28D0C",
"[ 	c #FC930C",
"} 	c #FF960C",
"| 	c #EA890B",
"1 	c #CC770A",
"2 	c #C57309",
"3 	c #FFBD13",
"4 	c #FFB412",
"5 	c #FFA110",
"6 	c #F8910E",
"7 	c #EF8C0E",
"8 	c #EC8B0E",
"9 	c #E9890E",
"0 	c #E8880D",
"a 	c #EB8A0E",
"b 	c #E6870D",
"c 	c #D37C0C",
"d 	c #C0710B",
"e 	c #FFB916",
"f 	c #FFB015",
"g 	c #FF9E12",
"h 	c #F08D10",
"i 	c #E68710",
"j 	c #E3850F",
"k 	c #E2850F",
"l 	c #DE820F",
"m 	c #CE790E",
"n 	c #BC6E0D",
"o 	c #FFB618",
"p 	c #FFAE17",
"q 	c #FF9B15",
"r 	c #EA8B12",
"s 	c #DF8412",
"t 	c #DE8311",
"u 	c #DD8311",
"v 	c #D98011",
"w 	c #C87610",
"x 	c #B2690E",
"y 	c #AA650D",
"z 	c #FFAA1A",
"A 	c #FF9817",
"B 	c #E58715",
"C 	c #DA8114",
"D 	c #D98013",
"E 	c #D88013",
"F 	c #D17B13",
"G 	c #AF6710",
"H 	c #87500C",
"I 	c #FFA51C",
"J 	c #FF9A1A",
"K 	c #E28717",
"L 	c #D68016",
"M 	c #D47E15",
"N 	c #D37E15",
"O 	c #CF7B15",
"P 	c #B06812",
"Q 	c #76460C",
"R 	c #74450C",
"S 	c #FFA11F",
"T 	c #F2901B",
"U 	c #D57F18",
"V 	c #CF7B17",
"W 	c #8A520F",
"X 	c #2E1B05",
"Y 	c #000000",
"Z 	c #5C360A",
"` 	c #73440C",
" .	c #170D02",
"..	c #452907",
"+.	c #B86D14",
"@.	c #CE7B17",
"#.	c #CD7A17",
"$.	c #B86E15",
"%.	c #844F0F",
"&.	c #72440D",
"*.	c #FFA122",
"=.	c #FF9C21",
"-.	c #E2871C",
";.	c #CE7B1A",
">.	c #CA7919",
",.	c #B36B16",
"'.	c #160D02",
").	c #865010",
"!.	c #5A360B",
"~.	c #2D1B05",
"{.	c #70430D",
"].	c #9D5E13",
"^.	c #C97919",
"/.	c #C07318",
"(.	c #975B13",
"_.	c #6D410D",
":.	c #A46215",
"<.	c #FA9623",
"[.	c #EE8F21",
"}.	c #D07D1D",
"|.	c #C6771C",
"1.	c #C5761B",
"2.	c #834E12",
"3.	c #2C1A06",
"4.	c #AF6918",
"5.	c #995C15",
"6.	c #412709",
"7.	c #C4761B",
"8.	c #BF721B",
"9.	c #5D380D",
"0.	c #895213",
"a.	c #EC8F24",
"b.	c #DF8722",
"c.	c #C6781E",
"d.	c #C0741D",
"e.	c #955A16",
"f.	c #150D03",
"g.	c #6A4010",
"h.	c #804D13",
"i.	c #2A1906",
"j.	c #402609",
"k.	c #BF741D",
"l.	c #BB711D",
"m.	c #955A17",
"n.	c #53320C",
"o.	c #7A4912",
"p.	c #E48A28",
"q.	c #D68225",
"r.	c #BF7421",
"s.	c #BB7120",
"t.	c #53320E",
"u.	c #291907",
"v.	c #150C03",
"w.	c #7C4B15",
"x.	c #3E250A",
"y.	c #915818",
"z.	c #BA7120",
"A.	c #B56E1F",
"B.	c #8E5619",
"C.	c #4F300D",
"D.	c #734614",
"E.	c #D58228",
"F.	c #CB7C27",
"G.	c #BA7223",
"H.	c #B66F22",
"I.	c #794A16",
"J.	c #140C03",
"K.	c #8E561A",
"L.	c #281807",
"M.	c #3C250B",
"N.	c #653D12",
"O.	c #B46E22",
"P.	c #AA6820",
"Q.	c #7D4D18",
"R.	c #452A0D",
"S.	c #6A4114",
"T.	c #C07528",
"U.	c #BE7427",
"V.	c #B66F25",
"W.	c #B16C24",
"X.	c #4F3010",
"Y.	c #623C14",
"Z.	c #3B240C",
"`.	c #764818",
" +	c #140C04",
".+	c #8A541C",
"++	c #AE6A24",
"@+	c #995D1F",
"#+	c #5E3A13",
"$+	c #35200B",
"%+	c #5F3A13",
"&+	c #B97229",
"*+	c #BC742A",
"=+	c #B77129",
"-+	c #AE6C27",
";+	c #AC6A26",
">+	c #AB6A26",
",+	c #86521D",
"'+	c #130C04",
")+	c #724619",
"!+	c #5F3B15",
"~+	c #995E21",
"{+	c #4C2F10",
"]+	c #A66725",
"^+	c #88541E",
"/+	c #492D10",
"(+	c #321F0B",
"_+	c #653E16",
":+	c #BA732D",
"<+	c #B46F2C",
"[+	c #A96829",
"}+	c #A66728",
"|+	c #A76728",
"1+	c #6F441A",
"2+	c #251708",
"3+	c #37220D",
"4+	c #82501F",
"5+	c #5C3916",
"6+	c #120B04",
"7+	c #945B23",
"8+	c #A46628",
"9+	c #9A5F25",
"0+	c #72461B",
"a+	c #3C250E",
"b+	c #3D260F",
"c+	c #A5672B",
"d+	c #A0642A",
"e+	c #A1652A",
"f+	c #A2652A",
"g+	c #975F28",
"h+	c #7B4D20",
"i+	c #4C3014",
"j+	c #2E1C0C",
"k+	c #452B12",
"l+	c #875526",
"m+	c #8F5A28",
"n+	c #9A602B",
"o+	c #9C622C",
"p+	c #9D622C",
"q+	c #9B612C",
"r+	c #935C29",
"s+	c #784B22",
"t+	c #4D3015",
"u+	c #2B1B0C",
"v+	c #2E1D0D",
"w+	c #7F5027",
"x+	c #7E5026",
"y+	c #8A572A",
"z+	c #955E2D",
"A+	c #97602E",
"B+	c #98602E",
"C+	c #965F2E",
"D+	c #8E5A2B",
"E+	c #754A23",
"F+	c #4A2F16",
"G+	c #2A1A0D",
"H+	c #4B2F17",
"I+	c #7A4D28",
"J+	c #84542C",
"K+	c #8D5A2F",
"L+	c #8F5B2F",
"M+	c #925C30",
"N+	c #925D30",
"O+	c #935D30",
"P+	c #905B2F",
"Q+	c #8E5A2F",
"R+	c #88562D",
"S+	c #704725",
"T+	c #482D17",
"U+	c #291A0D",
"V+	c #492E18",
"W+	c #764C2A",
"X+	c #724928",
"Y+	c #754B29",
"Z+	c #7E512D",
"`+	c #875730",
" @	c #895831",
".@	c #8A5931",
"+@	c #895830",
"@@	c #84552F",
"#@	c #7A4E2B",
"$@	c #6F4727",
"%@	c #613E22",
"&@	c #432B18",
"*@	c #27190E",
"=@	c #462D19",
"-@	c #694428",
";@	c #553720",
">@	c #4C311D",
",@	c #583922",
"'@	c #664227",
")@	c #6A4428",
"!@	c #684328",
"~@	c #5E3D24",
"{@	c #492F1C",
"]@	c #3A2616",
"^@	c #322013",
"/@	c #27190F",
"(@	c #442B1A",
"_@	c #492F1E",
":@	c #472E1D",
"<@	c #3E2919",
"[@	c #392517",
"}@	c #382517",
"|@	c #372416",
"1@	c #312014",
"2@	c #271A10",
"3@	c #301F14",
"4@	c #66442E",
"5@	c #583A27",
"6@	c #503524",
"7@	c #4F3423",
"8@	c #4E3323",
"9@	c #4A3121",
"0@	c #442D1E",
"                                                                                                                                                                  ",
"                    . + @ # # # # # # # # # # # # # # # # # # # # # # # # # # # # # # # # # # # # # # # # # # # # # # # # # # # # # # # $ % & *                   ",
"                = = - ; > > > > > > > > > > > > > > > > > > > > > > > > > > > > > > > > > > > > > > > > > > > > > > > > > > > > > > > > , ' ) ! ' ~               ",
"            { ] ^ / ( _ : : < < < < < < < < < < < < < < < < < < < < < < < < < < < < < < < < < < < < < < < < < < < < < < < < < < < < < < < < : [ } | 1 2           ",
"          3 4 5 6 7 8 9 9 0 0 0 0 0 0 0 0 0 0 0 0 0 0 0 0 0 0 0 0 0 0 0 0 0 0 0 0 0 0 0 0 0 0 0 0 0 0 0 0 0 0 0 0 0 0 0 0 0 0 0 0 0 0 0 0 0 9 a a b c d d         ",
"        e f g h i j j j j j j j j j j j j j j j j j j j j j j j j j j j j j j j j j j j j j j j j j j j j j j j j j j j j j j j j j j j k j j j j k l m n n       ",
"      o p q r s t t t t t t t t t t t t t t t t t t t t t t t t t t t t t t t t t t t t t t t t t t t t t t t t t t t t t t t t t t t t t t t u u u u v w x y     ",
"      z A B C D D D D D D D D D D D D D D D D D D D D D D D D D D D D D D D D D D D D D D D D D D D D D D D D D D D D D D D D D D D D D D D D D E E E E F G H     ",
"    I J K L M M M M M M M M M M M M M M M M M M M M M M M M M M M M M M M M M M M M M M M M M M M M M M M M M M M M M M M M M M M M M M M M M M M N N N O P Q R   ",
"    S T U V V V V V V V V W X Y Y Z V V Y Y Y Y Y Y Y V V `  .Y Y X W V V Y Y Y Y  .` V V Y Y Y Y  .` V V Y Y Y Y Y Y W V Y Y Y Y  ...+.V V V V V V @.@.#.$.%.&.  ",
"  *.=.-.;.>.>.>.>.>.>.>.,.Y '.).!.Y ~.>.).).!.Y !.).).>.!.Y '.{.!.Y Y ].>.Y Y ).).'.Y {.>.Y Y ).).'.Y {.>.Y Y ).).).).,.>.Y Y ).).!.Y '.>.>.>.>.>.>.>.^.^./.(._.:.",
"  <.[.}.|.1.1.1.1.1.1.1.2.Y 2.1.1.3.Y 1.1.1.2.Y 2.1.1.1.Y Y 4.1.1.5.Y 6.1.Y Y 1.1.2.Y 6.1.Y Y 1.1.2.Y 6.1.Y Y 1.1.1.1.1.1.Y Y 1.1.1.3.Y 2.1.1.1.1.1.1.1.7.8.5.9.0.",
"  a.b.c.d.d.d.d.d.d.d.d.e.Y f.g.e.d.d.d.d.d.h.Y h.d.d.e.Y i.d.d.d.d.i.f.d.Y Y d.d.g.Y j.d.Y Y d.d.g.Y j.d.Y Y h.h.h.h.d.d.Y Y d.d.d.e.Y j.d.d.d.d.d.d.d.k.l.m.n.o.",
"  p.q.r.s.s.s.s.s.s.s.s.s.t.u.Y Y v.t.s.s.s.w.Y w.s.s.w.Y x.s.s.s.s.x.Y s.Y Y x.x.Y Y y.s.Y Y x.x.Y Y y.s.Y Y Y Y Y Y s.s.Y Y s.s.s.s.Y x.s.s.s.s.s.s.s.z.A.B.C.D.",
"  E.F.G.H.H.H.H.H.H.H.H.H.H.H.H.I.J.Y K.H.H.I.Y I.H.H.K.Y L.H.H.H.H.L.J.H.Y Y M.M.N.H.H.H.Y Y M.M.N.H.H.H.Y Y H.H.H.H.H.H.Y Y H.H.H.K.Y M.H.H.H.H.H.H.H.O.P.Q.R.S.",
"  T.U.V.W.W.W.W.W.W.W.W.X.Y Y.W.W.Z.Y `.W.W.`.Y `.W.W.W. +Y `.W.W.X.Y X.W.Y Y W.W.W.W.W.W.Y Y W.W.W.W.W.W.Y Y W.W.W.W.W.W.Y Y W.W.W. +Y .+W.W.W.W.W.W.W.++@+#+$+%+",
"  &+*+=+-+;+>+;+;+;+;+;+,+Y '+)+!+'+Y ~+;+;+)+Y )+;+;+;+{+Y '+!+{+Y Y ,+;+Y Y ;+;+;+;+;+;+Y Y ;+;+;+;+;+;+Y Y )+)+)+)+,+;+Y Y )+)+{+Y '+;+;+;+;+;+;+;+>+]+^+/+(+_+",
"    :+<+[+}+}+}+|+|+|+|+|+1+2+Y Y 3+4+|+|+|+1+Y 1+|+|+|+|+5+6+Y Y 2+1+|+|+Y Y |+|+|+|+|+|+Y Y |+|+|+|+|+|+Y Y Y Y Y Y 3+|+Y Y Y Y 6+3+7+|+|+|+|+|+|+}+8+9+0+a+b+  ",
"    c+d+d+e+e+e+e+f+f+f+f+f+f+f+f+f+f+f+f+f+f+f+f+f+f+f+f+f+f+f+f+f+f+f+f+f+f+f+f+f+f+f+f+f+f+f+f+f+f+f+f+f+f+f+f+f+f+f+f+f+f+f+f+f+f+f+f+f+f+f+f+e+d+g+h+i+j+k+  ",
"      l+m+n+o+o+o+o+p+p+p+p+p+p+p+p+p+p+p+p+p+p+p+p+p+p+p+p+p+p+p+p+p+p+p+p+p+p+p+p+p+p+p+p+p+p+p+p+p+p+p+p+p+p+p+p+p+p+p+p+p+p+p+p+p+p+p+p+p+p+o+q+r+s+t+u+v+    ",
"      w+x+y+z+A+A+A+A+B+B+B+B+B+B+B+B+B+B+B+B+B+B+B+B+B+B+B+B+B+B+B+B+B+B+B+B+B+B+B+B+B+B+B+B+B+B+B+B+B+B+B+B+B+B+B+B+B+B+B+B+B+B+B+B+B+B+B+B+A+C+D+E+F+G+G+H+    ",
"        I+I+J+K+L+M+N+N+N+N+O+O+O+O+O+O+O+O+O+O+O+O+O+O+O+O+O+O+O+O+O+O+O+O+O+O+O+O+O+O+O+O+O+O+O+O+O+O+O+O+O+O+O+O+O+O+O+O+O+O+O+O+O+O+N+M+P+Q+R+S+T+U+U+V+      ",
"          W+X+X+Y+Z+`+ @ @.@ @ @ @ @ @ @ @ @ @ @ @ @ @ @ @ @ @ @ @ @ @ @ @ @ @ @ @ @ @ @ @ @ @ @ @ @ @ @ @ @ @ @ @ @ @ @ @ @ @ @ @ @ @ @+@@@#@$@%@&@*@*@=@        ",
"            -@;@>@,@'@)@)@)@)@)@)@)@)@)@)@)@)@)@)@)@)@)@)@)@)@)@)@)@)@)@)@)@)@)@)@)@)@)@)@)@)@)@)@)@)@)@)@)@)@)@)@)@)@)@)@)@)@)@)@)@)@)@!@~@{@]@^@*@/@(@          ",
"                _@_@:@<@[@}@}@}@}@}@}@}@}@}@}@}@}@}@}@}@}@}@}@}@}@}@}@}@}@}@}@}@}@}@}@}@}@}@}@}@}@}@}@}@}@}@}@}@}@}@}@}@}@}@}@}@}@}@}@}@|@1@2@2@3@}@              ",
"                    4@5@6@7@7@7@7@7@7@7@7@7@7@7@7@7@7@7@7@7@7@7@7@7@7@7@7@7@7@7@7@7@7@7@7@7@7@7@7@7@7@7@7@7@7@7@7@7@7@7@7@7@7@7@7@7@7@7@8@9@0@9@                  "};
