/* XPM */
static char * stopping_xpm[] = {
"87 26 316 2",
"  	c None",
". 	c #FF150E",
"+ 	c #FF140D",
"@ 	c #FF130D",
"# 	c #FF120C",
"$ 	c #FF110B",
"% 	c #FF210E",
"& 	c #FF1F0D",
"* 	c #FF1D0C",
"= 	c #FF1C0C",
"- 	c #FB1B0B",
"; 	c #EE1A0B",
"> 	c #FF310F",
", 	c #FF2F0E",
"' 	c #FF2B0D",
") 	c #FF290C",
"! 	c #FA280C",
"~ 	c #ED250B",
"{ 	c #E6240B",
"] 	c #E5240B",
"^ 	c #EE260B",
"/ 	c #F3260B",
"( 	c #DE230A",
"_ 	c #C11E09",
": 	c #BB1D09",
"< 	c #FF3F0F",
"[ 	c #FF3C0E",
"} 	c #FD360C",
"| 	c #E4300B",
"1 	c #DC2F0B",
"2 	c #DA2E0B",
"3 	c #D72E0B",
"4 	c #D62D0A",
"5 	c #D92E0B",
"6 	c #D42D0A",
"7 	c #C3290A",
"8 	c #B12609",
"9 	c #FF4D0F",
"0 	c #FF490E",
"a 	c #F3420C",
"b 	c #D93B0B",
"c 	c #CF380B",
"d 	c #CD370A",
"e 	c #CC370A",
"f 	c #C9360A",
"g 	c #BA3209",
"h 	c #AA2E09",
"i 	c #FF5B10",
"j 	c #FF570F",
"k 	c #E74D0E",
"l 	c #CE450C",
"m 	c #C4420C",
"n 	c #C3410B",
"o 	c #C2410B",
"p 	c #BF400B",
"q 	c #B03B0A",
"r 	c #9C3409",
"s 	c #963209",
"t 	c #F5640F",
"u 	c #DB590E",
"v 	c #C3500C",
"w 	c #BA4C0C",
"x 	c #B94B0B",
"y 	c #B84B0B",
"z 	c #B2480B",
"A 	c #953D09",
"B 	c #732F07",
"C 	c #E5700F",
"D 	c #D6680E",
"E 	c #BB5B0C",
"F 	c #B1560C",
"G 	c #AF550B",
"H 	c #AE550B",
"I 	c #AB530B",
"J 	c #914709",
"K 	c #612F06",
"L 	c #602F06",
"M 	c #D87D0F",
"N 	c #C16F0D",
"O 	c #AA620C",
"P 	c #A55F0B",
"Q 	c #6E3F07",
"R 	c #251603",
"S 	c #010101",
"T 	c #4A2B05",
"U 	c #5C3506",
"V 	c #130B02",
"W 	c #372004",
"X 	c #A45F0B",
"Y 	c #A35E0B",
"Z 	c #93550A",
"` 	c #693D07",
" .	c #5B3406",
"..	c #CF8B0F",
"+.	c #C9870F",
"@.	c #AF760D",
"#.	c #9F6B0C",
"$.	c #9C690B",
"%.	c #8A5D09",
"&.	c #120C02",
"*.	c #684607",
"=.	c #462F05",
"-.	c #231803",
";.	c #573A06",
">.	c #795208",
",.	c #342304",
"'.	c #9B690B",
").	c #94640B",
"!.	c #754F08",
"~.	c #543906",
"{.	c #7F5509",
"].	c #B99210",
"^.	c #B08B0F",
"/.	c #9A7A0D",
"(.	c #93740D",
"_.	c #92730C",
":.	c #614D08",
"<.	c #211A03",
"[.	c #82660A",
"}.	c #725909",
"|.	c #312704",
"1.	c #413305",
"2.	c #91730C",
"3.	c #8D6F0C",
"4.	c #725A0A",
"5.	c #453606",
"6.	c #655009",
"7.	c #A79A0F",
"8.	c #9E920F",
"9.	c #8C810D",
"0.	c #887D0C",
"a.	c #6A6109",
"b.	c #100F02",
"c.	c #4C4607",
"d.	c #5B5308",
"e.	c #1F1C03",
"f.	c #2E2A04",
"g.	c #796F0A",
"h.	c #847A0C",
"i.	c #6A610A",
"j.	c #3B3605",
"k.	c #564F08",
"l.	c #9AA30F",
"m.	c #919A0E",
"n.	c #81890D",
"o.	c #7E860C",
"p.	c #383C05",
"q.	c #1C1E03",
"r.	c #0F1002",
"s.	c #545908",
"t.	c #2A2D04",
"u.	c #626809",
"v.	c #464B07",
"w.	c #7A820C",
"x.	c #606609",
"y.	c #353805",
"z.	c #4E5308",
"A.	c #88A80F",
"B.	c #82A10E",
"C.	c #77930D",
"D.	c #74900C",
"E.	c #4D6008",
"F.	c #0E1102",
"G.	c #5A7009",
"H.	c #1A2003",
"I.	c #273004",
"J.	c #415007",
"K.	c #738F0C",
"L.	c #6D870C",
"M.	c #506308",
"N.	c #2C3604",
"O.	c #445407",
"P.	c #73A70E",
"Q.	c #72A50D",
"R.	c #6D9F0D",
"S.	c #6A9A0C",
"T.	c #2F4505",
"U.	c #3B5607",
"V.	c #243404",
"W.	c #476708",
"X.	c #0C1202",
"Y.	c #182303",
"Z.	c #527809",
"`.	c #69980C",
" +	c #5B850B",
".+	c #385206",
"++	c #202E03",
"@+	c #395306",
"#+	c #68B00E",
"$+	c #6AB30F",
"%+	c #67AE0E",
"&+	c #62A60E",
"*+	c #61A40D",
"=+	c #61A30D",
"-+	c #4B800A",
";+	c #0B1302",
">+	c #416D09",
",+	c #365B07",
"'+	c #56920B",
")+	c #2B4906",
"!+	c #213705",
"~+	c #162503",
"{+	c #5E9F0D",
"]+	c #4D810B",
"^+	c #294605",
"/+	c #1C3004",
"(+	c #396008",
"_+	c #61C20F",
":+	c #5EBC0F",
"<+	c #58B00E",
"[+	c #57AD0D",
"}+	c #57AE0D",
"|+	c #3A7409",
"1+	c #142703",
"2+	c #1D3A05",
"3+	c #44880A",
"4+	c #306107",
"5+	c #0A1402",
"6+	c #4D9B0B",
"7+	c #56AB0D",
"8+	c #51A10C",
"9+	c #3C7709",
"0+	c #1F3F05",
"a+	c #204005",
"b+	c #4FBB0E",
"c+	c #4CB60D",
"d+	c #4DB70D",
"e+	c #4DB80D",
"f+	c #4CB50D",
"g+	c #48AC0D",
"h+	c #3B8C0A",
"i+	c #245706",
"j+	c #163403",
"k+	c #214F05",
"l+	c #3AA70C",
"m+	c #3DB10C",
"n+	c #42BE0D",
"o+	c #43C10D",
"p+	c #43C20D",
"q+	c #42BF0D",
"r+	c #3FB50D",
"s+	c #34950A",
"t+	c #215F06",
"u+	c #123603",
"v+	c #133904",
"w+	c #30AA0B",
"x+	c #2FA90B",
"y+	c #34B90C",
"z+	c #38C80D",
"A+	c #39CB0D",
"B+	c #39CC0D",
"C+	c #38C90D",
"D+	c #36BF0D",
"E+	c #2C9C0A",
"F+	c #1C6406",
"G+	c #103803",
"H+	c #1C6506",
"I+	c #28B10C",
"J+	c #2CC10D",
"K+	c #2FCE0E",
"L+	c #2FD00E",
"M+	c #30D40E",
"N+	c #30D50E",
"O+	c #30D60E",
"P+	c #2FD10E",
"Q+	c #2FCF0E",
"R+	c #2DC50D",
"S+	c #25A30B",
"T+	c #176807",
"U+	c #0D3B04",
"V+	c #186A07",
"W+	c #20B90C",
"X+	c #1FB30B",
"Y+	c #20B80C",
"Z+	c #22C70D",
"`+	c #24D50E",
" @	c #25D90E",
".@	c #25DA0E",
"+@	c #25D70E",
"@@	c #24D00D",
"#@	c #21C00C",
"$@	c #1EAF0B",
"%@	c #1A990A",
"&@	c #126A07",
"*@	c #0A3E04",
"=@	c #136F07",
"-@	c #16B30B",
";@	c #129109",
">@	c #108208",
",@	c #129709",
"'@	c #15AE0B",
")@	c #16B50B",
"!@	c #16B20B",
"~@	c #13A10A",
"{@	c #0F7D07",
"]@	c #0C6406",
"^@	c #0A5605",
"/@	c #084204",
"(@	c #084304",
"_@	c #0E7307",
":@	c #0A8608",
"<@	c #0A8308",
"[@	c #087307",
"}@	c #086906",
"|@	c #086806",
"1@	c #076506",
"2@	c #075B05",
"3@	c #054904",
"4@	c #065905",
"5@	c #07CE0C",
"6@	c #06B00A",
"7@	c #05A209",
"8@	c #059F09",
"9@	c #059C09",
"0@	c #059508",
"a@	c #048908",
"                                                                                                                                                                              ",
"                    . + @ @ @ @ @ @ @ @ @ @ @ @ @ @ @ @ @ @ @ @ @ @ @ @ @ @ @ @ @ @ @ @ @ @ @ @ @ @ @ @ @ @ @ @ @ @ @ @ @ @ @ @ @ @ @ @ @ @ @ @ @ @ @ # $ $                   ",
"                % % % & * * * * * * * * * * * * * * * * * * * * * * * * * * * * * * * * * * * * * * * * * * * * * * * * * * * * * * * * * * * * * * * = - = = ;               ",
"            > , ' ) ! ~ { { ] ] ] ] ] ] ] ] ] ] ] ] ] ] ] ] ] ] ] ] ] ] ] ] ] ] ] ] ] ] ] ] ] ] ] ] ] ] ] ] ] ] ] ] ] ] ] ] ] ] ] ] ] ] ] ] ] ] ] ] ] ] { ^ / ( _ :           ",
"          < [ } | 1 2 3 3 4 4 4 4 4 4 4 4 4 4 4 4 4 4 4 4 4 4 4 4 4 4 4 4 4 4 4 4 4 4 4 4 4 4 4 4 4 4 4 4 4 4 4 4 4 4 4 4 4 4 4 4 4 4 4 4 4 4 4 4 4 4 4 3 5 5 6 7 8 8         ",
"        9 0 a b c d d d d d d d d d d d d d d d d d d d d d d d d d d d d d d d d d d d d d d d d d d d d d d d d d d d d d d d d d d d d d d d d d e d d d d e f g h h       ",
"      i j k l m n n n n n n n n n n n n n n n n n n n n n n n n n n n n n n n n n n n n n n n n n n n n n n n n n n n n n n n n n n n n n n n n n n n n n o o o o p q r s     ",
"      t u v w x x x x x x x x x x x x x x x x x x x x x x x x x x x x x x x x x x x x x x x x x x x x x x x x x x x x x x x x x x x x x x x x x x x x x x x y y y y z A B     ",
"    C D E F G G G G G G G G G G G G G G G G G G G G G G G G G G G G G G G G G G G G G G G G G G G G G G G G G G G G G G G G G G G G G G G G G G G G G G G G G H H H I J K L   ",
"    M N O P P P P P P P P Q R S S T P P S S S S S S S P P U V S S R Q P P S S S S V U P P S S S S V U P P S S P W S T P P W S Q P P Q R S S R Q P P P P P P P P X X Y Z `  .  ",
"  ..+.@.#.$.$.$.$.$.$.$.%.S &.*.=.S -.$.*.*.=.S =.*.*.$.=.S &.;.=.S S >.$.S S *.*.&.S ;.$.S S *.*.&.S ;.$.S S $.,.S S %.$.,.S *.$.;.S &.;.;.&.S >.$.$.$.$.$.$.$.$.'.'.).!.~.{.",
"  ].^./.(._._._._._._._.:.S :._._.<.S _._._.:.S :._._._.S S [._._.}.S |._.S S _._.:.S |._.S S _._.:.S |._.S S _.|.S S 1._.|.S :._.S S [._._._.S |._._._._._._._._._.2.3.4.5.6.",
"  7.8.9.0.0.0.0.0.0.0.0.a.S b.c.a.0.0.0.0.0.d.S d.0.0.a.S e.0.0.0.0.e.b.0.S S 0.0.c.S f.0.S S 0.0.c.S f.0.S S 0.f.S e.S g.f.S d.d.S e.0.0.0.0.0.0.0.0.0.0.0.0.0.0.0.0.h.i.j.k.",
"  l.m.n.o.o.o.o.o.o.o.o.o.p.q.S S r.p.o.o.o.s.S s.o.o.s.S t.o.o.o.o.t.S o.S S t.t.S S u.o.S S t.t.S S u.o.S S o.t.S s.r.p.t.S s.s.S t.o.o.t.t.t.v.o.o.o.o.o.o.o.o.o.o.w.x.y.z.",
"  A.B.C.D.D.D.D.D.D.D.D.D.D.D.D.E.F.S G.D.D.E.S E.D.D.G.S H.D.D.D.D.H.F.D.S S I.I.J.D.D.D.S S I.I.J.D.D.D.S S D.I.S E.E.S H.S E.E.S H.D.D.I.I.S I.D.D.D.D.D.D.D.D.D.K.L.M.N.O.",
"  P.Q.R.S.S.S.S.S.S.S.S.T.S U.S.S.V.S W.S.S.W.S W.S.S.S.X.S W.S.S.T.S T.S.S S S.S.S.S.S.S.S S S.S.S.S.S.S.S S S.V.S W.S.Y.S S W.S.S S Z.S.S.Z.S V.S.S.S.S.S.S.S.S.S.`. +.+++@+",
"  #+$+%+&+*+=+*+*+*+*+*+-+S ;+>+,+;+S '+*+*+>+S >+*+*+*+)+S ;+,+)+S S -+*+S S *+*+*+*+*+*+S S *+*+*+*+*+*+S S *+!+S >+*+,+S S >+*+~+S ~+>+,+;+S !+*+*+*+*+*+*+*+*+=+{+]+^+/+(+",
"    _+:+<+[+[+[+}+}+}+}+}+|+1+S S 2+3+}+}+}+|+S |+}+}+}+}+4+5+S S 1+|+}+}+S S }+}+}+}+}+}+S S }+}+}+}+}+}+S S }+2+S |+}+}+5+S |+}+6+4+S S S 2+4+2+}+}+}+}+}+}+}+[+7+8+9+0+a+  ",
"    b+c+c+d+d+d+d+e+e+e+e+e+e+e+e+e+e+e+e+e+e+e+e+e+e+e+e+e+e+e+e+e+e+e+e+e+e+e+e+e+e+e+e+e+e+e+e+e+e+e+e+e+e+e+e+e+e+e+e+e+e+e+e+e+e+e+e+e+e+e+e+e+e+e+e+e+e+d+f+g+h+i+j+k+  ",
"      l+m+n+o+o+o+o+p+p+p+p+p+p+p+p+p+p+p+p+p+p+p+p+p+p+p+p+p+p+p+p+p+p+p+p+p+p+p+p+p+p+p+p+p+p+p+p+p+p+p+p+p+p+p+p+p+p+p+p+p+p+p+p+p+p+p+p+p+p+p+p+p+p+p+p+o+q+r+s+t+u+v+    ",
"      w+x+y+z+A+A+A+A+B+B+B+B+B+B+B+B+B+B+B+B+B+B+B+B+B+B+B+B+B+B+B+B+B+B+B+B+B+B+B+B+B+B+B+B+B+B+B+B+B+B+B+B+B+B+B+B+B+B+B+B+B+B+B+B+B+B+B+B+B+B+B+B+B+B+A+C+D+E+F+G+G+H+    ",
"        I+I+J+K+L+M+N+N+N+N+O+O+O+O+O+O+O+O+O+O+O+O+O+O+O+O+O+O+O+O+O+O+O+O+O+O+O+O+O+O+O+O+O+O+O+O+O+O+O+O+O+O+O+O+O+O+O+O+O+O+O+O+O+O+O+O+O+O+O+O+N+M+P+Q+R+S+T+U+U+V+      ",
"          W+X+X+Y+Z+`+ @ @.@ @ @ @ @ @ @ @ @ @ @ @ @ @ @ @ @ @ @ @ @ @ @ @ @ @ @ @ @ @ @ @ @ @ @ @ @ @ @ @ @ @ @ @ @ @ @ @ @ @ @ @ @ @ @ @ @ @ @ @ @+@@@#@$@%@&@*@*@=@        ",
"            -@;@>@,@'@)@)@)@)@)@)@)@)@)@)@)@)@)@)@)@)@)@)@)@)@)@)@)@)@)@)@)@)@)@)@)@)@)@)@)@)@)@)@)@)@)@)@)@)@)@)@)@)@)@)@)@)@)@)@)@)@)@)@)@)@)@)@)@!@~@{@]@^@/@(@_@          ",
"                :@:@<@[@}@|@|@|@|@|@|@|@|@|@|@|@|@|@|@|@|@|@|@|@|@|@|@|@|@|@|@|@|@|@|@|@|@|@|@|@|@|@|@|@|@|@|@|@|@|@|@|@|@|@|@|@|@|@|@|@|@|@|@|@|@|@1@2@3@3@4@|@              ",
"                    5@6@7@8@8@8@8@8@8@8@8@8@8@8@8@8@8@8@8@8@8@8@8@8@8@8@8@8@8@8@8@8@8@8@8@8@8@8@8@8@8@8@8@8@8@8@8@8@8@8@8@8@8@8@8@8@8@8@8@8@8@8@8@8@9@0@a@0@                  "};
