/* XPM */
static char * unknown_xpm[] = {
"86 26 253 2",
"  	c None",
". 	c #0E0700",
"+ 	c #0D0700",
"@ 	c #0C0600",
"# 	c #0B0600",
"$ 	c #140700",
"% 	c #130700",
"& 	c #120600",
"* 	c #110600",
"= 	c #100600",
"- 	c #1C0800",
"; 	c #1B0700",
"> 	c #190700",
", 	c #180600",
"' 	c #170600",
") 	c #160600",
"! 	c #150600",
"~ 	c #140500",
"{ 	c #120500",
"] 	c #110400",
"^ 	c #230800",
"/ 	c #220700",
"( 	c #1E0700",
"_ 	c #1B0600",
": 	c #1A0600",
"< 	c #190500",
"[ 	c #170500",
"} 	c #150400",
"| 	c #2A0800",
"1 	c #280700",
"2 	c #240700",
"3 	c #200600",
"4 	c #1F0600",
"5 	c #1E0500",
"6 	c #1C0500",
"7 	c #190400",
"8 	c #310800",
"9 	c #2F0700",
"0 	c #2A0700",
"a 	c #250600",
"b 	c #240600",
"c 	c #230500",
"d 	c #200500",
"e 	c #1C0400",
"f 	c #1B0400",
"g 	c #340700",
"h 	c #2A0600",
"i 	c #280600",
"j 	c #270500",
"k 	c #260500",
"l 	c #200400",
"m 	c #180300",
"n 	c #3A0700",
"o 	c #360700",
"p 	c #2F0600",
"q 	c #2D0600",
"r 	c #2C0500",
"s 	c #2B0500",
"t 	c #250400",
"u 	c #410701",
"v 	c #3A0601",
"w 	c #330601",
"x 	c #310500",
"y 	c #705451",
"z 	c #F0F4F4",
"A 	c #B0A4A2",
"B 	c #9A8986",
"C 	c #856E6C",
"D 	c #DAD8D8",
"E 	c #5A3935",
"F 	c #C5BEBD",
"G 	c #1F0300",
"H 	c #1B0300",
"I 	c #480701",
"J 	c #460701",
"K 	c #3D0601",
"L 	c #370601",
"M 	c #360500",
"N 	c #745451",
"O 	c #B2A4A2",
"P 	c #4A1F1A",
"Q 	c #C6BEBD",
"R 	c #886E6C",
"S 	c #5E3935",
"T 	c #9C8986",
"U 	c #340500",
"V 	c #290400",
"W 	c #1D0300",
"X 	c #2C0400",
"Y 	c #4B0701",
"Z 	c #3F0601",
"` 	c #3C0601",
" .	c #3B0500",
"..	c #775451",
"+.	c #B3A4A2",
"@.	c #9F8986",
"#.	c #C7BEBD",
"$.	c #DBD8D8",
"%.	c #8B6E6C",
"&.	c #4E1F1A",
"*.	c #390500",
"=.	c #2E0400",
"-.	c #1C0200",
";.	c #4F0701",
">.	c #4B0601",
",.	c #420601",
"'.	c #400500",
").	c #7A5451",
"!.	c #B5A4A2",
"~.	c #C8BEBD",
"{.	c #531F1A",
"].	c #8D6E6C",
"^.	c #663935",
"/.	c #3F0500",
"(.	c #320400",
"_.	c #290300",
":.	c #530601",
"<.	c #4E0501",
"[.	c #460501",
"}.	c #440400",
"|.	c #7D5451",
"1.	c #B6A4A2",
"2.	c #DCD8D8",
"3.	c #A38886",
"4.	c #693835",
"5.	c #561E1A",
"6.	c #420400",
"7.	c #340300",
"8.	c #1D0200",
"9.	c #2A0300",
"0.	c #560501",
"a.	c #520501",
"b.	c #4B0501",
"c.	c #490400",
"d.	c #805451",
"e.	c #B8A4A2",
"f.	c #CABEBD",
"g.	c #936E6C",
"h.	c #DDD8D8",
"i.	c #5B1E1A",
"j.	c #6D3835",
"k.	c #A58886",
"l.	c #320300",
"m.	c #1B0100",
"n.	c #2B0200",
"o.	c #550501",
"p.	c #540501",
"q.	c #510501",
"r.	c #4E0400",
"s.	c #845451",
"t.	c #CBBEBD",
"u.	c #956E6C",
"v.	c #BAA4A2",
"w.	c #5F1E1A",
"x.	c #A78886",
"y.	c #713835",
"z.	c #4D0400",
"A.	c #430400",
"B.	c #2A0200",
"C.	c #170100",
"D.	c #590501",
"E.	c #5B0501",
"F.	c #580501",
"G.	c #530400",
"H.	c #641E1A",
"I.	c #A98886",
"J.	c #986E6C",
"K.	c #DED8D8",
"L.	c #BBA4A2",
"M.	c #875451",
"N.	c #CCBEBD",
"O.	c #753835",
"P.	c #510400",
"Q.	c #420300",
"R.	c #230200",
"S.	c #180100",
"T.	c #310200",
"U.	c #620502",
"V.	c #5F0502",
"W.	c #590502",
"X.	c #580401",
"Y.	c #8A5452",
"Z.	c #CEBEBD",
"`.	c #AC8887",
" +	c #BDA4A3",
".+	c #681E1B",
"++	c #793836",
"@+	c #9B6E6C",
"#+	c #570401",
"$+	c #510401",
"%+	c #3C0301",
"&+	c #200100",
"*+	c #5C0401",
"=+	c #5D0401",
"-+	c #470301",
";+	c #2C0200",
">+	c #1A0100",
",+	c #280200",
"'+	c #540401",
")+	c #590401",
"!+	c #5F0401",
"~+	c #610401",
"{+	c #600401",
"]+	c #5B0401",
"^+	c #4B0301",
"/+	c #2F0200",
"(+	c #1C0100",
"_+	c #550401",
":+	c #640401",
"<+	c #660401",
"[+	c #650401",
"}+	c #4E0301",
"|+	c #320200",
"1+	c #670401",
"2+	c #680401",
"3+	c #6A0401",
"4+	c #6B0401",
"5+	c #690401",
"6+	c #630401",
"7+	c #520301",
"8+	c #340200",
"9+	c #1D0100",
"0+	c #350200",
"a+	c #5A0301",
"b+	c #6D0401",
"c+	c #6C0401",
"d+	c #580301",
"e+	c #4D0301",
"f+	c #1F0100",
"g+	c #370200",
"h+	c #490301",
"i+	c #410201",
"j+	c #570301",
"k+	c #590301",
"l+	c #510301",
"m+	c #3E0201",
"n+	c #2B0100",
"o+	c #210100",
"p+	c #220100",
"q+	c #3A0200",
"r+	c #430201",
"s+	c #420201",
"t+	c #390200",
"u+	c #330200",
"v+	c #2D0100",
"w+	c #240100",
"x+	c #660301",
"y+	c #580201",
"z+	c #500201",
"A+	c #4F0201",
"B+	c #4E0201",
"C+	c #4A0201",
"D+	c #440201",
"                                                                                                                                                                            ",
"                    . + + + + + + + + + + + + + + + + + + + + + + + + + + + + + + + + + + + + + + + + + + + + + + + + + + + + + + + + + + + + + + + @ # #                   ",
"                $ $ $ % & & & & & & & & & & & & & & & & & & & & & & & & & & & & & & & & & & & & & & & & & & & & & & & & & & & & & & & & & & & & & & * * * * =               ",
"            - ; > , ' ) ! ! ! ! ! ! ! ! ! ! ! ! ! ! ! ! ! ! ! ! ! ! ! ! ! ! ! ! ! ! ! ! ! ! ! ! ! ! ! ! ! ! ! ! ! ! ! ! ! ! ! ! ! ! ! ! ! ! ! ! ! ! ! ! ) ) ~ { ]           ",
"          ^ / ( _ : : : : < < < < < < < < < < < < < < < < < < < < < < < < < < < < < < < < < < < < < < < < < < < < < < < < < < < < < < < < < < < < < < : : : < [ } }         ",
"        | 1 2 3 4 5 5 5 5 5 5 5 5 5 5 5 5 5 5 5 5 5 5 5 5 5 5 5 5 5 5 5 5 5 5 5 5 5 5 5 5 5 5 5 5 5 5 5 5 5 5 5 5 5 5 5 5 5 5 5 5 5 5 5 5 5 5 5 5 5 5 5 5 5 5 5 6 7 7       ",
"      8 9 0 a b c c c c c c c c c c c c c c c c c c c c c c c c c c c c c c c c c c c c c c c c c c c c c c c c c c c c c c c c c c c c c c c c c c c c c c c c c d e f     ",
"      g 9 h i j j j j j j j j j j j j j j j j j j j j j j j j j j j j j j j j j j j j j j j j j j j j j j j j j j j j j j j j j j j j j j j j j j j j j j j j j j k l m     ",
"    n o p q r r r r r r r r r r r r r r r r r r r r r r r r r r r r r r r r r r r r r r r r r r r r r r r r r r r r r r r r r r r r r r r r r r r r r r r r r r r s t m m   ",
"    u v w x x x x x x x y z A x x y z A x A z B x x A z y x z z x x C z D x y z D x x y z A x x E F z z D B x x D z x x z z y x A z C y z D x x y z A x x x x x x x r G H   ",
"  I J K L M M M M M M M N z O M M N z O M O z z P M O z N M z z M N z Q P M N z z R M N z O M S z z T R D z T M O z P P z z R M Q D M N z z R M N z O M M M M M M M U V W X ",
"  Y I Z `  . . . . . . ...z +. . ...z +. .+.z z @. .+.z .. .z z  .z #. . . ...z z $. ...z +. .+.z %. . .&.#.z  .+.z ....z z +. .z +. ...z z $. ...z +. . . . . . . .*.=.-.V ",
"  ;.>.,.'.'.'.'.'.'.'.'.).z !.'.'.).z !.'.!.z ~.z {.!.z ).'.z z !.z ).'.'.'.).z ~.z ].).z !.'.$.z {.'.'.'.].z ^.).z ].].~.~.~.'.z ].'.).z ~.z ].).z !.'.'.'.'.'.'.'./.(.-._.",
"  :.<.[.}.}.}.}.}.}.}.}.|.z 1.}.}.|.z 1.}.1.z |.2.3.1.z |.}.z z z z 4.}.}.}.|.z 1.3.2.|.z 1.}.z z }.}.}.}.|.z |.5.z 1.1.1.1.z |.z 4.}.|.z 1.3.2.|.z 1.}.}.}.}.}.}.}.6.7.8.9.",
"  0.a.b.c.c.c.c.c.c.c.c.d.z e.c.c.d.z e.c.e.z d.d.z f.z d.c.z z g.h.h.i.c.c.d.z e.i.h.f.z e.c.h.z i.c.c.c.g.z j.c.h.f.f.d.d.z k.h.c.c.d.z e.i.h.f.z e.c.c.c.c.c.c.c.}.l.m.n.",
"  o.p.q.r.r.r.r.r.r.r.r.s.z t.r.r.u.z v.r.v.z s.r.t.z z s.r.z z r.s.z t.w.r.s.z v.r.u.z z v.r.x.z v.r.r.s.h.h.r.r.v.z z y.y.h.z v.r.r.s.z v.r.u.z z v.r.r.r.r.r.r.z.A.B.C.B.",
"  D.E.F.p.G.G.G.G.G.G.G.H.z z I.J.K.z J.G.L.z M.G.J.z z M.G.z z G.G.N.z J.G.M.z L.G.H.z z L.G.O.z z I.J.K.z I.G.G.O.z z G.G.L.z J.G.G.M.z L.G.H.z z L.G.G.G.G.G.G.P.Q.R.S.T.",
"    U.V.W.X.X.X.X.X.X.X.X.Y.Z.z z K.`.X.X. +z Y.X.X.K.z Y.X.z z X.X..+z z ++Y.z  +X.X.`.z  +X.X.++Z.z z K.`.X.X.X.X.Z.Z.X.X.@+z .+X.X.Y.z  +X.X.`.z  +X.X.X.X.X.#+$+%+&+&+  ",
"    V.*+*+=+=+=+=+=+=+=+=+=+=+=+=+=+=+=+=+=+=+=+=+=+=+=+=+=+=+=+=+=+=+=+=+=+=+=+=+=+=+=+=+=+=+=+=+=+=+=+=+=+=+=+=+=+=+=+=+=+=+=+=+=+=+=+=+=+=+=+=+=+=+=+=+=+=+*+#+-+;+>+,+  ",
"      '+)+!+~+~+~+~+~+~+~+~+~+~+~+~+~+~+~+~+~+~+~+~+~+~+~+~+~+~+~+~+~+~+~+~+~+~+~+~+~+~+~+~+~+~+~+~+~+~+~+~+~+~+~+~+~+~+~+~+~+~+~+~+~+~+~+~+~+~+~+~+~+~+~+~+{+]+^+/+m.(+    ",
"      _+_+=+:+<+<+<+<+<+<+<+<+<+<+<+<+<+<+<+<+<+<+<+<+<+<+<+<+<+<+<+<+<+<+<+<+<+<+<+<+<+<+<+<+<+<+<+<+<+<+<+<+<+<+<+<+<+<+<+<+<+<+<+<+<+<+<+<+<+<+<+<+<+<+[+!+}+|+(+(+|+    ",
"        )+)+~+1+2+3+4+4+4+4+4+4+4+4+4+4+4+4+4+4+4+4+4+4+4+4+4+4+4+4+4+4+4+4+4+4+4+4+4+4+4+4+4+4+4+4+4+4+4+4+4+4+4+4+4+4+4+4+4+4+4+4+4+4+4+4+4+4+4+4+3+5+2+6+7+8+9+9+0+      ",
"          =+a+a+*+:+4+b+b+b+b+b+b+b+b+b+b+b+b+b+b+b+b+b+b+b+b+b+b+b+b+b+b+b+b+b+b+b+b+b+b+b+b+b+b+b+b+b+b+b+b+b+b+b+b+b+b+b+b+b+b+b+b+b+b+b+b+b+b+c+2+{+d+e+0+f+f+g+        ",
"            a+h+i+^+j+a+a+a+a+a+a+a+a+a+a+a+a+a+a+a+a+a+a+a+a+a+a+a+a+a+a+a+a+a+a+a+a+a+a+a+a+a+a+a+a+a+a+a+a+a+a+a+a+a+a+a+a+a+a+a+a+a+a+a+a+a+a+k+l+m+|+n+o+p+q+          ",
"                r+r+s+t+0+8+8+8+8+8+8+8+8+8+8+8+8+8+8+8+8+8+8+8+8+8+8+8+8+8+8+8+8+8+8+8+8+8+8+8+8+8+8+8+8+8+8+8+8+8+8+8+8+8+8+8+8+8+8+8+8+8+8+8+8+u+v+w+w+v+8+              ",
"                    x+y+z+A+A+A+A+A+A+A+A+A+A+A+A+A+A+A+A+A+A+A+A+A+A+A+A+A+A+A+A+A+A+A+A+A+A+A+A+A+A+A+A+A+A+A+A+A+A+A+A+A+A+A+A+A+A+A+A+A+A+A+A+B+C+D+C+                  "};
