/* XPM */
static char * up_xpm[] = {
"47 26 292 2",
"  	c None",
". 	c #0BFF11",
"+ 	c #0BFF10",
"@ 	c #0BFF0F",
"# 	c #0AFF0F",
"$ 	c #09FF0E",
"% 	c #09FF0D",
"& 	c #0FFF14",
"* 	c #0EFF13",
"= 	c #0DFF12",
"- 	c #0DFF11",
"; 	c #0CFF11",
"> 	c #0CF610",
", 	c #14FF1A",
"' 	c #13FF19",
") 	c #12FF17",
"! 	c #11FF16",
"~ 	c #10FF15",
"{ 	c #0FFA14",
"] 	c #0FF413",
"^ 	c #0FF213",
"/ 	c #0FFC14",
"( 	c #10FF14",
"_ 	c #0EEA12",
": 	c #0CCC10",
"< 	c #0CC50F",
"[ 	c #18FF1C",
"} 	c #17FF1B",
"| 	c #15FF18",
"1 	c #13F816",
"2 	c #12EF15",
"3 	c #12EC15",
"4 	c #12E915",
"5 	c #11E814",
"6 	c #12EB15",
"7 	c #11E614",
"8 	c #10D313",
"9 	c #0EC011",
"0 	c #1CFF21",
"a 	c #1BFF1F",
"b 	c #16F019",
"c 	c #15E618",
"d 	c #14E317",
"e 	c #14E217",
"f 	c #14DE17",
"g 	c #12CE15",
"h 	c #11BC13",
"i 	c #21FF25",
"j 	c #1FFF23",
"k 	c #1CFF1F",
"l 	c #19EA1C",
"m 	c #18DF1B",
"n 	c #17DE1A",
"o 	c #17DD1A",
"p 	c #17D91A",
"q 	c #15C818",
"r 	c #13B215",
"s 	c #12AA14",
"t 	c #23FF26",
"u 	c #1FFF22",
"v 	c #1CE51E",
"w 	c #1BDA1D",
"x 	c #1AD91C",
"y 	c #1AD81C",
"z 	c #19D11B",
"A 	c #15AF17",
"B 	c #108712",
"C 	c #27FF29",
"D 	c #24FF27",
"E 	c #1FE222",
"F 	c #1ED620",
"G 	c #1DD41F",
"H 	c #1DD31F",
"I 	c #1DCF1F",
"J 	c #18B01A",
"K 	c #107611",
"L 	c #107411",
"M 	c #2BFF2D",
"N 	c #26F228",
"O 	c #21D523",
"P 	c #20CF22",
"Q 	c #158A16",
"R 	c #000000",
"S 	c #0A450B",
"T 	c #0E5C0F",
"U 	c #1CB81E",
"V 	c #20CE22",
"W 	c #20CD22",
"X 	c #1DB81F",
"Y 	c #158416",
"Z 	c #127213",
"` 	c #2FFF30",
" .	c #2EFF2F",
"..	c #28E229",
"+.	c #24CE25",
"@.	c #23CA24",
"#.	c #178618",
"$.	c #0B430C",
"%.	c #0F5A10",
"&.	c #072D08",
"*.	c #23C924",
"=.	c #22C023",
"-.	c #1A971B",
";.	c #136D13",
">.	c #1DA41D",
",.	c #31FA32",
"'.	c #2EEE30",
").	c #29D02A",
"!.	c #27C628",
"~.	c #26C527",
"{.	c #19831A",
"].	c #0C410D",
"^.	c #26C427",
"/.	c #25BF26",
"(.	c #1E991F",
"_.	c #125D12",
":.	c #1B891B",
"<.	c #33EC34",
"[.	c #30DF31",
"}.	c #2BC62C",
"|.	c #29C02A",
"1.	c #1B801C",
"2.	c #0D400E",
"3.	c #24AA25",
"4.	c #29BF2A",
"5.	c #28BB29",
"6.	c #209521",
"7.	c #125312",
"8.	c #1A7A1B",
"9.	c #35E436",
"0.	c #32D633",
"a.	c #2CBF2D",
"b.	c #2BBB2C",
"c.	c #1C7C1D",
"d.	c #0E3E0E",
"e.	c #092909",
"f.	c #041505",
"g.	c #135313",
"h.	c #2BBA2C",
"i.	c #2AB52B",
"j.	c #218E22",
"k.	c #124F12",
"l.	c #1B731B",
"m.	c #36D537",
"n.	c #34CB35",
"o.	c #2FBA30",
"p.	c #2EB62F",
"q.	c #1E791F",
"r.	c #0F3C0F",
"s.	c #0A280A",
"t.	c #145115",
"u.	c #28A229",
"v.	c #2EB42F",
"w.	c #2BAA2C",
"x.	c #207D21",
"y.	c #114512",
"z.	c #1B6A1B",
"A.	c #36C037",
"B.	c #35BE36",
"C.	c #33B634",
"D.	c #31B132",
"E.	c #207621",
"F.	c #0A270B",
"G.	c #1B621B",
"H.	c #103B10",
"I.	c #31AE32",
"J.	c #2A992B",
"K.	c #1A5E1B",
"L.	c #0E350F",
"M.	c #1A5F1B",
"N.	c #38B938",
"O.	c #39BC39",
"P.	c #38B738",
"Q.	c #35AE35",
"R.	c #34AC34",
"S.	c #34AB34",
"T.	c #2E992E",
"U.	c #174C17",
"V.	c #1C5F1C",
"W.	c #051305",
"X.	c #113911",
"Y.	c #227222",
"Z.	c #33A633",
"`.	c #298829",
" +	c #164916",
".+	c #0F320F",
"++	c #1F651F",
"@+	c #3EBA3E",
"#+	c #3CB43C",
"$+	c #38A938",
"%+	c #37A637",
"&+	c #37A737",
"*+	c #246F24",
"=+	c #0C250C",
"-+	c #061206",
";+	c #184A18",
">+	c #123712",
",+	c #36A436",
"'+	c #339A33",
")+	c #267226",
"!+	c #143C14",
"~+	c #143D14",
"{+	c #3BA53B",
"]+	c #3AA03A",
"^+	c #3AA13A",
"/+	c #3AA23A",
"(+	c #39A039",
"_+	c #369736",
":+	c #2C7B2C",
"<+	c #1B4C1B",
"[+	c #102E10",
"}+	c #194519",
"|+	c #358734",
"1+	c #388F37",
"2+	c #3C9A3B",
"3+	c #3D9C3C",
"4+	c #3D9D3C",
"5+	c #3C9B3B",
"6+	c #399338",
"7+	c #2F782E",
"8+	c #1E4D1D",
"9+	c #112B10",
"0+	c #122E11",
"a+	c #367F35",
"b+	c #357E34",
"c+	c #3A8A39",
"d+	c #3F953E",
"e+	c #40973F",
"f+	c #40983F",
"g+	c #3F963E",
"h+	c #3C8E3B",
"i+	c #317530",
"j+	c #1F4A1F",
"k+	c #122A11",
"l+	c #204B1F",
"m+	c #387A37",
"n+	c #3D843C",
"o+	c #418D40",
"p+	c #418F41",
"q+	c #439242",
"r+	c #439342",
"s+	c #429041",
"t+	c #418E40",
"u+	c #3E883D",
"v+	c #337032",
"w+	c #214820",
"x+	c #122912",
"y+	c #214921",
"z+	c #3A7639",
"A+	c #387237",
"B+	c #3A7538",
"C+	c #3F7E3D",
"D+	c #438741",
"E+	c #448942",
"F+	c #448A42",
"G+	c #41843F",
"H+	c #3C7A3A",
"I+	c #376F35",
"J+	c #30612F",
"K+	c #214320",
"L+	c #132713",
"M+	c #234622",
"N+	c #386937",
"O+	c #2D552C",
"P+	c #294C27",
"Q+	c #2F582E",
"R+	c #366635",
"S+	c #396A37",
"T+	c #386836",
"U+	c #325E31",
"V+	c #274926",
"W+	c #1F3A1E",
"X+	c #1B321A",
"Y+	c #142714",
"Z+	c #152714",
"`+	c #244423",
" @	c #2A4929",
".@	c #294728",
"+@	c #243E23",
"@@	c #213920",
"#@	c #203820",
"$@	c #20371F",
"%@	c #1C311B",
"&@	c #172716",
"*@	c #1C301B",
"=@	c #3F663F",
"-@	c #365836",
";@	c #325031",
">@	c #314F30",
",@	c #304E30",
"'@	c #2E4A2D",
")@	c #2A4429",
"                                                                                              ",
"                    . + @ # # # # # # # # # # # # # # # # # # # # # # # $ %                   ",
"                & & & * = = = = = = = = = = = = = = = = = = = = = = = - ; - - >               ",
"            , ' ) ! ~ { ] ] ^ ^ ^ ^ ^ ^ ^ ^ ^ ^ ^ ^ ^ ^ ^ ^ ^ ^ ^ ^ ^ ^ ] / ( _ : <           ",
"          [ } | 1 2 3 4 4 5 5 5 5 5 5 5 5 5 5 5 5 5 5 5 5 5 5 5 5 5 5 5 4 6 6 7 8 9 9         ",
"        0 a [ b c d d d d d d d d d d d d d d d d d d d d d d d d d e d d d d e f g h h       ",
"      i j k l m n n n n n n n n n n n n n n n n n n n n n n n n n n n n n o o o o p q r s     ",
"      t u v w x x x x x x x x x x x x x x x x x x x x x x x x x x x x x x x y y y y z A B     ",
"    C D E F G G G G G G G G G G G G G G G G G G G G G G G G G G G G G G G G G H H H I J K L   ",
"    M N O P P P P P P P P P P P Q R S P P Q R S P S R R R R T U P P P P P P P P V V W X Y Z   ",
"  `  ...+.@.@.@.@.@.@.@.@.@.@.@.#.R $.@.@.#.R $.@.$.R %.#.$.R &.@.@.@.@.@.@.@.@.@.*.*.=.-.;.>.",
"  ,.'.).!.~.~.~.~.~.~.~.~.~.~.~.{.R ].~.~.{.R ].~.].R {.~.~.R R ~.~.~.~.~.~.~.~.~.~.^./.(._.:.",
"  <.[.}.|.|.|.|.|.|.|.|.|.|.|.|.1.R 2.|.|.1.R 2.|.2.R 1.|.3.R R |.|.|.|.|.|.|.|.|.|.4.5.6.7.8.",
"  9.0.a.b.b.b.b.b.b.b.b.b.b.b.b.c.R d.b.b.c.R d.b.d.R e.d.f.R g.b.b.b.b.b.b.b.b.b.b.h.i.j.k.l.",
"  m.n.o.p.p.p.p.p.p.p.p.p.p.p.p.q.R r.p.p.q.R r.p.r.R s.r.t.u.p.p.p.p.p.p.p.p.p.p.p.v.w.x.y.z.",
"  A.B.C.D.D.D.D.D.D.D.D.D.D.D.D.E.R F.D.D.G.R H.D.H.R E.D.D.D.D.D.D.D.D.D.D.D.D.D.D.I.J.K.L.M.",
"  N.O.P.Q.R.S.R.R.R.R.R.R.R.R.R.T.R R U.V.W.R V.R.X.R Y.R.R.R.R.R.R.R.R.R.R.R.R.R.S.Z.`. +.+++",
"    @+#+$+%+%+%+&+&+&+&+&+&+&+&+&+*+=+R R -+;+&+&+>+R *+&+&+&+&+&+&+&+&+&+&+&+&+%+,+'+)+!+~+  ",
"    {+]+]+^+^+^+^+/+/+/+/+/+/+/+/+/+/+/+/+/+/+/+/+/+/+/+/+/+/+/+/+/+/+/+/+/+/+^+(+_+:+<+[+}+  ",
"      |+1+2+3+3+3+3+4+4+4+4+4+4+4+4+4+4+4+4+4+4+4+4+4+4+4+4+4+4+4+4+4+4+4+4+3+5+6+7+8+9+0+    ",
"      a+b+c+d+e+e+e+e+f+f+f+f+f+f+f+f+f+f+f+f+f+f+f+f+f+f+f+f+f+f+f+f+f+f+e+g+h+i+j+k+k+l+    ",
"        m+m+n+o+p+q+q+q+q+q+r+r+r+r+r+r+r+r+r+r+r+r+r+r+r+r+r+r+r+r+q+q+s+t+u+v+w+x+x+y+      ",
"          z+A+A+B+C+D+E+E+F+E+E+E+E+E+E+E+E+E+E+E+E+E+E+E+E+E+E+E+E+E+G+H+I+J+K+L+L+M+        ",
"            N+O+P+Q+R+S+S+S+S+S+S+S+S+S+S+S+S+S+S+S+S+S+S+S+S+S+S+S+T+U+V+W+X+Y+Z+`+          ",
"                 @ @.@+@@@#@#@#@#@#@#@#@#@#@#@#@#@#@#@#@#@#@#@#@#@#@$@%@&@&@*@#@              ",
"                    =@-@;@>@>@>@>@>@>@>@>@>@>@>@>@>@>@>@>@>@>@>@>@>@,@'@)@'@                  "};
