/* XPM */
static char * yellow_xpm[] = {
"18 12 116 2",
"  	c None",
". 	c #FFFFFF",
"+ 	c #BDBEAB",
"@ 	c #848649",
"# 	c #757913",
"$ 	c #898D11",
"% 	c #AEB245",
"& 	c #DDDFA8",
"* 	c #90917C",
"= 	c #4F510E",
"- 	c #696C0C",
"; 	c #82860A",
"> 	c #999E08",
", 	c #ADB206",
"' 	c #B9BE05",
") 	c #D9DB76",
"! 	c #B1B1AC",
"~ 	c #3B3D10",
"{ 	c #575A0D",
"] 	c #73760B",
"^ 	c #8E9309",
"/ 	c #A9AE06",
"( 	c #C1C804",
"_ 	c #D4DA02",
": 	c #D4DA03",
"< 	c #E9EBA7",
"[ 	c #FDFDFD",
"} 	c #FCFCFC",
"| 	c #58584C",
"1 	c #3E4010",
"2 	c #5B5D0D",
"3 	c #777A0B",
"4 	c #939808",
"5 	c #B0B506",
"6 	c #CCD303",
"7 	c #E8F001",
"8 	c #E8EF01",
"9 	c #D9DD41",
"0 	c #F8F8F8",
"a 	c #F7F7F7",
"b 	c #F6F6F6",
"c 	c #272819",
"d 	c #3D3E10",
"e 	c #595B0D",
"f 	c #75780B",
"g 	c #909508",
"h 	c #ACB106",
"i 	c #C5CC04",
"j 	c #DAE102",
"k 	c #C7CE0C",
"l 	c #EEEEEE",
"m 	c #ECECEC",
"n 	c #EAEAEA",
"o 	c #E9E9E9",
"p 	c #21221A",
"q 	c #373810",
"r 	c #52540E",
"s 	c #6C700C",
"t 	c #868A09",
"u 	c #9EA307",
"v 	c #B3B805",
"w 	c #C0C604",
"x 	c #B4BA0D",
"y 	c #E1E1E1",
"z 	c #DCDCDC",
"A 	c #D9D9D9",
"B 	c #D7D7D7",
"C 	c #444444",
"D 	c #2D2E11",
"E 	c #47480F",
"F 	c #5F620D",
"G 	c #767A0B",
"H 	c #8B8F09",
"I 	c #9B9F08",
"J 	c #A4A907",
"K 	c #B4B745",
"L 	c #D3D3D3",
"M 	c #CCCCCC",
"N 	c #C8C8C8",
"O 	c #C5C5C5",
"P 	c #888888",
"Q 	c #202012",
"R 	c #383910",
"S 	c #4E500E",
"T 	c #63650D",
"U 	c #74770B",
"V 	c #81850A",
"W 	c #888C09",
"X 	c #D3D4A9",
"Y 	c #CACACA",
"Z 	c #C2C2C2",
"` 	c #BCBCBC",
" .	c #B9B9B9",
"..	c #BABABA",
"+.	c #616161",
"@.	c #262712",
"#.	c #3A3C10",
"$.	c #4C4E0E",
"%.	c #5B5E0D",
"&.	c #66690C",
"*.	c #6C6F0C",
"=.	c #AEAF79",
"-.	c #C0C0C0",
";.	c #8B8B8B",
">.	c #515143",
",.	c #3B3C18",
"'.	c #474816",
").	c #767749",
"!.	c #C0C0A9",
"~.	c #FEFEFE",
"{.	c #C7C7C7",
"].	c #CBCBCB",
"^.	c #D5D5D5",
"/.	c #DFDFDF",
"(.	c #F3F3F3",
"_.	c #F9F9F9",
". . . . . . . . . . . . . . . . . . ",
". . . . . . + @ # $ % & . . . . . . ",
". . . . . * = - ; > , ' ) . . . . . ",
". . . . ! ~ { ] ^ / ( _ : < . . . . ",
"[ } } } | 1 2 3 4 5 6 7 8 9 . . . . ",
"0 a b b c d e f g h i j j k . . . . ",
"l m n o p q r s t u v w w x . . . . ",
"y z A B C D E F G H I J J K . . . . ",
"L M N O P Q R S T U V W W X . . . . ",
"Y Z `  ...+.@.#.$.%.&.*.=.. . . . . ",
"Y Z `  ...-.;.>.,.'.).!.~.. . . . . ",
"L M N O {.].^./.n (._.[ . . . . . . "};
